<svg width="67" height="91" viewBox="0 0 67 91" fill="none" xmlns="http://www.w3.org/2000/svg">
<g id="Capa_1" clip-path="url(#clip0_558_340)">
<path id="Vector" d="M66.1307 45.1102C66.1307 59.3661 66.1307 73.622 66.1307 87.878C66.1307 89.857 65.9123 90.0686 63.9334 90.0686C43.3757 90.0686 22.8158 90.0686 2.25817 90.0686C0.263415 90.0686 0 89.8052 0 87.7947C0 59.2445 0 30.6966 0 2.14645C0 0.327309 0.328706 0.000854492 2.17261 0.000854492C22.7685 0.000854492 43.3644 0.000854492 63.9604 0.000854492C65.8358 0.000854492 66.1262 0.282281 66.1262 2.11718C66.1262 16.4474 66.1262 30.7799 66.1262 45.1102H66.1307ZM2.66567 2.68454V87.3939H63.4876V2.68454H2.66567Z" fill="white"/>
<path id="Vector_2" d="M60.8821 45.1419C60.8821 57.5224 60.8821 69.9029 60.8821 82.2834C60.8821 84.0868 60.6277 84.3254 58.7951 84.3254C41.6866 84.3254 24.5804 84.3277 7.47187 84.3299C5.45911 84.3299 5.28125 84.1543 5.28125 82.1573C5.28125 57.358 5.28125 32.5587 5.28125 7.76167C5.28125 6.02808 5.49964 5.79393 7.2017 5.79393C24.4971 5.78943 41.7924 5.78943 59.0878 5.78943C60.6007 5.78943 60.8844 6.08211 60.8844 7.6626C60.8844 20.1557 60.8844 32.6488 60.8844 45.1419H60.8821ZM7.5957 8.08587V82.0222H58.5857V8.08587H7.5957Z" fill="white"/>
<path id="Vector_3" d="M53.9749 44.9345C53.7205 53.5934 53.4638 62.2524 53.2162 70.9091C53.1329 73.8134 53.1464 73.8134 50.2331 73.8134C42.5445 73.8134 34.8559 73.8246 27.1673 73.7954C26.5189 73.7931 25.8142 73.6445 25.2334 73.3631C20.985 71.3098 16.7771 69.18 12.5241 67.1357C11.4727 66.6314 11.2318 65.9672 11.439 64.8888C13.9853 51.5829 16.5069 38.2703 19.0375 24.96C19.472 22.6793 19.92 20.4031 20.3546 18.1247C20.6675 16.4812 20.8859 16.2898 22.579 16.2898C31.1298 16.2898 39.6807 16.2898 48.2315 16.2943C49.8436 16.2943 51.4578 16.2853 53.0698 16.2965C54.5895 16.3078 54.8597 16.5667 54.8169 18.0617C54.549 27.02 54.2698 35.9761 53.9929 44.9345C53.9862 44.9345 53.9794 44.9345 53.9726 44.9345H53.9749ZM13.7579 64.5218C14.0303 64.5646 14.1744 64.6074 14.3185 64.6051C22.8671 64.5241 31.4157 64.434 39.9644 64.371C40.6083 64.3665 40.7614 64.0715 40.8987 63.5267C42.7741 56.0768 44.6676 48.6291 46.5655 41.1837C47.7115 36.6876 48.8755 32.196 50.0214 27.7C50.7959 24.6605 51.5546 21.6189 52.3494 18.4647C51.8248 18.4647 51.4173 18.4647 51.0098 18.4647C42.0109 18.4647 33.0097 18.4939 24.0109 18.4309C22.7771 18.4219 22.3921 18.7799 22.1714 19.9573C19.7557 32.9052 17.2791 45.8418 14.8206 58.7807C14.4604 60.6809 14.1136 62.5811 13.7557 64.5196L13.7579 64.5218ZM52.3381 28.2898C52.2796 28.2673 52.2211 28.2425 52.1625 28.22C52.0837 28.4564 51.9892 28.6861 51.9284 28.927C49.1434 39.8733 46.3561 50.8197 43.5824 61.7683C43.3167 62.813 42.6953 64.0377 43.015 64.8865C43.337 65.7353 44.618 66.2351 45.5028 66.852C47.2679 68.0835 49.0511 69.2903 51.0165 70.6366C51.4623 56.3604 51.8991 42.3251 52.3381 28.2898ZM48.5445 71.6115C46.2841 70.0378 44.2848 68.6824 42.3283 67.2663C41.5651 66.7147 40.7996 66.4648 39.8428 66.4805C32.4987 66.5953 25.1546 66.6629 17.8082 66.7507C17.5921 66.753 17.3759 66.8272 16.9864 66.8993C20.0011 68.383 22.8108 69.7924 25.6476 71.141C26.2307 71.4179 26.9219 71.5867 27.5658 71.5912C34.0882 71.625 40.6083 71.6115 47.1306 71.6137C47.4886 71.6137 47.8466 71.6137 48.5445 71.6137V71.6115Z" fill="white"/>
<path id="Vector_4" d="M34.0639 52.5736C34.0324 56.0363 31.1618 59.087 27.9198 59.105C25.2181 59.1207 23.1243 56.9279 23.1153 54.0731C23.104 50.6239 26.1367 47.4517 29.3719 47.5282C32.0151 47.5913 34.0886 49.8201 34.0639 52.5714V52.5736ZM32.1637 52.6457C32.193 49.998 29.8132 48.5706 27.5078 49.8944C25.817 50.8671 24.9141 52.3552 25.029 54.3387C25.1618 56.6307 27.1318 57.8239 29.2684 56.9594C30.9614 56.2727 32.1412 54.5143 32.1637 52.6479V52.6457Z" fill="white"/>
<path id="Vector_5" d="M37.4581 24.1021C37.1362 25.3066 36.8705 26.2769 36.6161 27.2518C36.132 29.0934 35.6592 30.9374 35.1729 32.779C34.9771 33.5175 34.5628 34.0308 33.7253 33.7854C32.9508 33.558 32.863 32.9321 33.0453 32.2432C33.7545 29.573 34.4322 26.8938 35.227 24.2484C35.3553 23.8184 35.9857 23.3704 36.454 23.278C36.7354 23.2218 37.1497 23.8341 37.4559 24.1021H37.4581Z" fill="white"/>
</g>
<defs>
<clipPath id="clip0_558_340">
<rect width="66.1307" height="90.07" fill="white"/>
</clipPath>
</defs>
</svg>
