<svg width="67" height="91" viewBox="0 0 67 91" fill="none" xmlns="http://www.w3.org/2000/svg">
<g id="Capa_1" clip-path="url(#clip0_558_97)">
<path id="Vector" d="M0 44.9888C0 30.7333 0 16.4799 0 2.22434C0 0.204873 0.211628 0 2.28062 0C22.6892 0 43.0955 0 63.504 0C66.0008 0 66.1246 0.121573 66.1246 2.57555C66.1246 30.8616 66.1291 59.1454 66.1291 87.4314C66.1291 87.8434 66.1471 88.2577 66.1133 88.6697C66.0413 89.5499 65.5595 90.0362 64.6635 90.0632C64.1006 90.079 63.5378 90.0677 62.9749 90.0677C42.7555 90.0677 22.5361 90.0677 2.31665 90.0677C0.222884 90.0677 0 89.8449 0 87.7556C0 73.4978 0 59.2422 0 44.9888ZM2.62508 2.61382V87.3751H63.4432V2.61382H2.62508Z" fill="#0B0B0B"/>
<path id="Vector_2" d="M60.8484 44.9797C60.8484 57.3599 60.8484 69.7401 60.8484 82.1225C60.8484 84.1645 60.7314 84.2771 58.6646 84.2771C41.5948 84.2771 24.5251 84.2771 7.45302 84.2793C5.36826 84.2793 5.24444 84.151 5.24444 82.0302C5.24444 57.2315 5.24444 32.4329 5.24219 7.63417C5.24219 6.04021 5.53712 5.73627 7.14909 5.73627C24.4823 5.73177 41.8132 5.73177 59.1464 5.73402C60.4837 5.73402 60.8394 6.11 60.8394 7.50134C60.8394 19.9941 60.8394 32.4869 60.8394 44.9797H60.8439H60.8484ZM7.52056 81.9469H58.534V8.04842H7.52056V81.9469Z" fill="#0B0B0B"/>
<path id="Vector_3" d="M52.6852 44.1379C52.9419 52.72 53.1985 61.3045 53.4552 69.8866C53.4822 70.7737 53.6128 71.6765 53.5002 72.5455C53.4484 72.9485 52.9824 73.3807 52.5952 73.6284C52.3228 73.8017 51.8657 73.6959 51.492 73.6959C41.4419 73.6959 31.3896 73.6959 21.3396 73.6959C19.525 73.6959 19.3832 73.5924 19.0455 71.825C16.3146 57.4862 13.5904 43.145 10.8663 28.8039C10.6141 27.4801 10.4183 26.145 10.1143 24.8347C9.92071 23.9972 10.1661 23.4321 10.8978 23.0719C15.3938 20.8498 19.892 18.6323 24.4037 16.4417C24.7842 16.2571 25.275 16.2436 25.7162 16.2436C33.8166 16.2323 41.917 16.2346 50.0174 16.2346C51.5933 16.2346 51.8049 16.4687 51.8545 18.0559C52.1246 26.7506 52.4061 35.4454 52.683 44.1401L52.6852 44.1379ZM21.2135 71.5256H51.0687C47.1649 56.1894 43.2858 40.9477 39.3775 25.5889H12.467C15.3802 40.8937 18.2958 56.2096 21.2113 71.5256H21.2135ZM50.8346 61.7907C50.9044 61.784 50.9764 61.7772 51.0462 61.7705C50.6117 47.7108 50.175 33.6533 49.7337 19.3639C46.861 21.3564 44.1706 23.2205 41.4937 25.0779C44.6231 37.3815 47.73 49.5861 50.8346 61.7907ZM15.7315 23.1147C16.1232 23.2048 16.2245 23.2475 16.3281 23.2475C24.0097 23.3286 31.6913 23.4096 39.373 23.4794C39.6566 23.4817 39.9943 23.4366 40.2195 23.2836C42.4641 21.7549 44.6884 20.1992 47.1221 18.5084C46.7011 18.4634 46.5323 18.4296 46.3612 18.4296C39.5035 18.4274 32.6459 18.4251 25.786 18.4319C25.4956 18.4319 25.1759 18.4724 24.9192 18.5985C21.9317 20.0506 18.9532 21.523 15.7292 23.1125L15.7315 23.1147Z" fill="#0B0B0B"/>
<path id="Vector_4" d="M32.3993 56.0721C35.7223 56.1172 38.7572 59.179 38.7189 62.448C38.6874 65.1924 36.5959 67.2389 33.8267 67.2389C30.4542 67.2389 27.3248 64.1252 27.4058 60.8495C27.4779 57.9948 29.5289 56.0316 32.3993 56.0699V56.0721ZM36.8188 62.4029C36.8188 60.0841 34.5651 57.8687 32.2395 57.9025C30.4902 57.9273 29.2925 59.1385 29.2857 60.8945C29.2745 63.2787 31.5371 65.431 33.973 65.3522C35.6998 65.2959 36.8188 64.1365 36.8188 62.4029Z" fill="#0B0B0B"/>
<path id="Vector_5" d="M28.6615 39.9797C28.4611 40.1688 28.1527 40.6979 27.8127 40.7204C27.4075 40.7452 26.7614 40.4367 26.597 40.0923C26.2323 39.3313 26.0972 38.4578 25.8766 37.6293C25.3498 35.6459 24.7712 33.6714 24.3502 31.6655C24.2624 31.2467 24.7577 30.7041 24.9828 30.2201C25.4466 30.4948 26.2098 30.6794 26.3246 31.0599C27.1621 33.8448 27.8668 36.6702 28.612 39.4844C28.63 39.5565 28.6277 39.633 28.6615 39.9797Z" fill="#0B0B0B"/>
</g>
<defs>
<clipPath id="clip0_558_97">
<rect width="66.1336" height="90.07" fill="white"/>
</clipPath>
</defs>
</svg>
