<svg width="243" height="104" viewBox="0 0 243 104" fill="none" xmlns="http://www.w3.org/2000/svg">
<mask id="path-1-inside-1_118_49" fill="white">
<path d="M121.507 27.7733C122.561 27.7733 123.461 27.3984 124.206 26.6487C124.951 25.899 125.323 24.997 125.323 23.9426C125.323 22.8883 124.949 21.9887 124.199 21.2437C123.448 20.4987 122.546 20.1262 121.493 20.1262C120.44 20.1262 119.54 20.5019 118.794 21.2532C118.049 22.0029 117.676 22.9049 117.676 23.9592C117.676 25.0135 118.051 25.9132 118.801 26.6582C119.552 27.4031 120.454 27.7756 121.507 27.7756M121.5 49.765C115.936 44.8453 111.746 40.2571 108.929 36.0003C106.11 31.7436 104.7 27.8695 104.7 24.3783C104.7 19.3702 106.331 15.2397 109.591 11.9868C112.854 8.73224 116.823 7.10498 121.5 7.10498C126.177 7.10498 130.146 8.73224 133.409 11.9868C136.669 15.2397 138.3 19.3702 138.3 24.3783C138.3 27.8695 136.891 31.7436 134.074 36.0003C131.255 40.2571 127.064 44.8453 121.5 49.765Z"/>
</mask>
<path d="M124.199 21.2437L124.904 20.5343L124.903 20.5336L124.199 21.2437ZM118.794 21.2532L118.085 20.5483L118.085 20.5483L118.794 21.2532ZM118.801 26.6582L118.096 27.3675L118.097 27.3682L118.801 26.6582ZM121.5 49.765L120.838 50.5141L121.5 51.0998L122.162 50.5141L121.5 49.765ZM108.929 36.0003L109.762 35.4484L109.762 35.4482L108.929 36.0003ZM109.591 11.9868L110.298 12.6947L110.298 12.6947L109.591 11.9868ZM133.409 11.9868L132.702 12.6947V12.6947L133.409 11.9868ZM134.074 36.0003L134.908 36.5524L134.908 36.5522L134.074 36.0003ZM121.507 28.7733C122.828 28.7733 123.983 28.2917 124.915 27.3536L123.497 25.9438C122.939 26.5052 122.294 26.7733 121.507 26.7733V28.7733ZM124.915 27.3536C125.846 26.417 126.323 25.2618 126.323 23.9426H124.323C124.323 24.7321 124.056 25.381 123.497 25.9438L124.915 27.3536ZM126.323 23.9426C126.323 22.6213 125.842 21.4665 124.904 20.5343L123.494 21.953C124.055 22.5108 124.323 23.1554 124.323 23.9426H126.323ZM124.903 20.5336C123.966 19.604 122.811 19.1262 121.493 19.1262V21.1262C122.28 21.1262 122.93 21.3935 123.495 21.9538L124.903 20.5336ZM121.493 19.1262C120.172 19.1262 119.018 19.6094 118.085 20.5483L119.503 21.958C120.063 21.3944 120.708 21.1262 121.493 21.1262V19.1262ZM118.085 20.5483C117.154 21.4848 116.676 22.64 116.676 23.9592H118.676C118.676 23.1697 118.944 22.5209 119.503 21.958L118.085 20.5483ZM116.676 23.9592C116.676 25.2806 117.158 26.4353 118.096 27.3675L119.506 25.9488C118.945 25.391 118.676 24.7465 118.676 23.9592H116.676ZM118.097 27.3682C119.034 28.2979 120.189 28.7756 121.507 28.7756V26.7756C120.72 26.7756 120.07 26.5084 119.505 25.9481L118.097 27.3682ZM122.162 49.0158C116.637 44.1304 112.515 39.6074 109.762 35.4484L108.095 36.5522C110.977 40.9068 115.235 45.5602 120.838 50.5141L122.162 49.0158ZM109.762 35.4482C107.004 31.2835 105.7 27.6019 105.7 24.3783H103.7C103.7 28.1371 105.215 32.2036 108.095 36.5524L109.762 35.4482ZM105.7 24.3783C105.7 19.6103 107.242 15.7427 110.298 12.6947L108.885 11.2788C105.419 14.7367 103.7 19.1301 103.7 24.3783H105.7ZM110.298 12.6947C113.37 9.63031 117.084 8.10498 121.5 8.10498V6.10498C116.563 6.10498 112.338 7.83417 108.885 11.2788L110.298 12.6947ZM121.5 8.10498C125.916 8.10498 129.63 9.63031 132.702 12.6947L134.115 11.2788C130.662 7.83417 126.437 6.10498 121.5 6.10498V8.10498ZM132.702 12.6947C135.758 15.7427 137.3 19.6103 137.3 24.3783H139.3C139.3 19.1301 137.581 14.7367 134.115 11.2788L132.702 12.6947ZM137.3 24.3783C137.3 27.6021 135.996 31.2837 133.24 35.4484L134.908 36.5522C137.786 32.2034 139.3 28.137 139.3 24.3783H137.3ZM133.24 35.4482C130.486 39.6073 126.363 44.1303 120.838 49.0158L122.162 50.5141C127.765 45.5603 132.024 40.9069 134.908 36.5524L133.24 35.4482Z" fill="white" mask="url(#path-1-inside-1_118_49)"/>
<path d="M2.38605 63.8973H6.82679C8.75281 63.8973 10.2058 64.1763 11.1859 64.7344C12.1659 65.2925 12.6559 66.2555 12.6559 67.6234C12.6559 68.1951 12.5538 68.7123 12.3496 69.1751C12.1523 69.6311 11.863 70.0088 11.4819 70.3083C11.1008 70.6009 10.6312 70.7983 10.0731 70.9004V71.0025C10.6516 71.1046 11.1654 71.2849 11.6146 71.5435C12.0706 71.8022 12.4279 72.1731 12.6865 72.6563C12.9519 73.1395 13.0847 73.7656 13.0847 74.5347C13.0847 75.4466 12.8669 76.2225 12.4313 76.8622C12.0025 77.502 11.3866 77.9886 10.5836 78.322C9.78728 78.6555 8.84129 78.8223 7.74556 78.8223H2.38605V63.8973ZM4.83611 70.0531H7.18409C8.29342 70.0531 9.06247 69.8727 9.49123 69.512C9.91999 69.1513 10.1344 68.6239 10.1344 67.9297C10.1344 67.2219 9.87916 66.7115 9.36873 66.3984C8.86511 66.0853 8.06203 65.9288 6.9595 65.9288H4.83611V70.0531ZM4.83611 72.0335V76.7703H7.41889C8.56225 76.7703 9.36533 76.5492 9.82812 76.1068C10.2909 75.6644 10.5223 75.0655 10.5223 74.3101C10.5223 73.8473 10.4168 73.4457 10.2058 73.1054C10.0017 72.7652 9.66478 72.5031 9.19518 72.3194C8.72559 72.1288 8.09265 72.0335 7.29638 72.0335H4.83611ZM25.774 67.5213V78.8223H23.8854L23.5587 77.3012H23.426C23.1878 77.6891 22.8849 78.0124 22.5174 78.271C22.1499 78.5228 21.7416 78.71 21.2924 78.8325C20.8432 78.9618 20.3702 79.0264 19.8734 79.0264C19.0227 79.0264 18.2944 78.8835 17.6887 78.5977C17.0898 78.305 16.6304 77.8559 16.3106 77.2501C15.9907 76.6444 15.8308 75.8618 15.8308 74.9022V67.5213H18.24V74.453C18.24 75.3309 18.417 75.9877 18.7709 76.4232C19.1316 76.8588 19.6896 77.0766 20.4451 77.0766C21.1733 77.0766 21.7518 76.9269 22.1805 76.6274C22.6093 76.328 22.9121 75.8856 23.0891 75.3003C23.2728 74.715 23.3647 73.997 23.3647 73.1463V67.5213H25.774ZM33.7162 67.307C34.7235 67.307 35.5878 67.5145 36.3092 67.9297C37.0306 68.3448 37.5853 68.9335 37.9732 69.6958C38.3612 70.458 38.5551 71.37 38.5551 72.4317V73.718H31.011C31.0382 74.8137 31.3308 75.6576 31.8889 76.2497C32.4538 76.8418 33.2432 77.1378 34.2573 77.1378C34.9787 77.1378 35.6253 77.0698 36.1969 76.9337C36.7754 76.7908 37.3709 76.5832 37.9834 76.3109V78.2608C37.4186 78.5262 36.8435 78.7202 36.2582 78.8427C35.6729 78.9652 34.9719 79.0264 34.1552 79.0264C33.0459 79.0264 32.0693 78.8121 31.2253 78.3833C30.3882 77.9477 29.7315 77.3012 29.2551 76.4437C28.7855 75.5861 28.5507 74.521 28.5507 73.2484C28.5507 71.9825 28.7651 70.9072 29.1938 70.0225C29.6226 69.1377 30.2249 68.4639 31.0008 68.0011C31.7766 67.5384 32.6818 67.307 33.7162 67.307ZM33.7162 69.1139C32.9608 69.1139 32.3483 69.3589 31.8787 69.8489C31.4159 70.3389 31.1437 71.0569 31.062 72.0029H36.2071C36.2003 71.438 36.1051 70.9378 35.9213 70.5023C35.7444 70.0667 35.4721 69.7264 35.1046 69.4814C34.7439 69.2364 34.2811 69.1139 33.7162 69.1139ZM47.1508 67.307C48.4234 67.307 49.4137 67.637 50.1215 68.2972C50.8361 68.9505 51.1934 70.002 51.1934 71.4517V78.8223H48.7943V71.9008C48.7943 71.0229 48.614 70.3661 48.2533 69.9306C47.8926 69.4882 47.3345 69.267 46.5791 69.267C45.4834 69.267 44.7211 69.6039 44.2924 70.2777C43.8704 70.9514 43.6594 71.9281 43.6594 73.2075V78.8223H41.2604V67.5213H43.1286L43.4655 69.0526H43.5982C43.8432 68.6579 44.146 68.3346 44.5067 68.0828C44.8742 67.8242 45.2826 67.6302 45.7318 67.5009C46.1877 67.3716 46.6607 67.307 47.1508 67.307ZM64.5564 73.1463C64.5564 74.0855 64.4339 74.9192 64.1889 75.6474C63.9439 76.3756 63.5866 76.9915 63.117 77.4951C62.6474 77.992 62.0825 78.3731 61.4224 78.6385C60.7622 78.8971 60.017 79.0264 59.1867 79.0264C58.4108 79.0264 57.6996 78.8971 57.0531 78.6385C56.4066 78.3731 55.8451 77.992 55.3687 77.4951C54.8991 76.9915 54.535 76.3756 54.2764 75.6474C54.0177 74.9192 53.8884 74.0855 53.8884 73.1463C53.8884 71.9008 54.1028 70.8459 54.5316 69.9816C54.9671 69.1105 55.5865 68.4469 56.3895 67.9909C57.1926 67.535 58.1488 67.307 59.2582 67.307C60.2994 67.307 61.2182 67.535 62.0145 67.9909C62.8108 68.4469 63.4335 69.1105 63.8827 69.9816C64.3318 70.8528 64.5564 71.9076 64.5564 73.1463ZM56.3589 73.1463C56.3589 73.9698 56.4576 74.6742 56.655 75.2595C56.8591 75.8448 57.1722 76.2939 57.5942 76.607C58.0161 76.9133 58.5606 77.0664 59.2275 77.0664C59.8945 77.0664 60.439 76.9133 60.8609 76.607C61.2829 76.2939 61.5925 75.8448 61.7899 75.2595C61.9873 74.6742 62.0859 73.9698 62.0859 73.1463C62.0859 72.3228 61.9873 71.6252 61.7899 71.0535C61.5925 70.475 61.2829 70.0361 60.8609 69.7366C60.439 69.4304 59.8911 69.2772 59.2173 69.2772C58.2237 69.2772 57.4989 69.6107 57.0429 70.2777C56.5869 70.9446 56.3589 71.9008 56.3589 73.1463ZM74.9079 75.5963C74.9079 76.3382 74.7276 76.9643 74.3669 77.4747C74.0062 77.9852 73.4787 78.3731 72.7846 78.6385C72.0972 78.8971 71.2533 79.0264 70.2528 79.0264C69.4634 79.0264 68.7828 78.9686 68.2111 78.8529C67.6462 78.744 67.112 78.5739 66.6084 78.3425V76.2701C67.146 76.5219 67.7483 76.7397 68.4153 76.9235C69.089 77.1072 69.7254 77.1991 70.3243 77.1991C71.1137 77.1991 71.682 77.0766 72.0291 76.8316C72.3762 76.5798 72.5498 76.2463 72.5498 75.8311C72.5498 75.5861 72.4783 75.3684 72.3354 75.1778C72.1993 74.9804 71.9406 74.7797 71.5595 74.5755C71.1852 74.3645 70.6339 74.1127 69.9057 73.8201C69.1911 73.5342 68.5888 73.2484 68.0988 72.9625C67.6088 72.6767 67.2379 72.333 66.9861 71.9315C66.7343 71.5231 66.6084 71.0025 66.6084 70.3695C66.6084 69.3691 67.0031 68.6103 67.7926 68.093C68.5888 67.569 69.6403 67.307 70.947 67.307C71.6412 67.307 72.2945 67.3784 72.9071 67.5213C73.5264 67.6575 74.1321 67.8582 74.7242 68.1237L73.9688 69.9306C73.4583 69.706 72.9445 69.5222 72.4273 69.3793C71.9168 69.2296 71.3962 69.1547 70.8653 69.1547C70.246 69.1547 69.773 69.25 69.4463 69.4406C69.1265 69.6311 68.9665 69.9034 68.9665 70.2572C68.9665 70.5227 69.0448 70.7473 69.2013 70.931C69.3579 71.1148 69.6267 71.2985 70.0078 71.4823C70.3957 71.666 70.9334 71.894 71.6208 72.1663C72.2945 72.4249 72.8764 72.6971 73.3664 72.9829C73.8633 73.262 74.2444 73.6057 74.5098 74.014C74.7752 74.4224 74.9079 74.9498 74.9079 75.5963ZM92.4259 78.8223L90.9661 74.6776H85.2595L83.7996 78.8223H81.2169L86.7703 63.836H89.4858L95.0291 78.8223H92.4259ZM90.3331 72.5746L88.9142 68.4912C88.8597 68.3142 88.7814 68.0658 88.6794 67.7459C88.5773 67.4193 88.4752 67.0892 88.3731 66.7557C88.271 66.4154 88.1859 66.1296 88.1179 65.8982C88.0498 66.1772 87.9648 66.4903 87.8627 66.8374C87.7674 67.1777 87.6721 67.4975 87.5768 67.797C87.4883 68.0964 87.4203 68.3278 87.3727 68.4912L85.9434 72.5746H90.3331ZM99.1534 67.5213V78.8223H96.7544V67.5213H99.1534ZM97.9692 63.1929C98.3367 63.1929 98.6532 63.2916 98.9186 63.4889C99.1908 63.6863 99.3269 64.0266 99.3269 64.5098C99.3269 64.9862 99.1908 65.3265 98.9186 65.5307C98.6532 65.728 98.3367 65.8267 97.9692 65.8267C97.5881 65.8267 97.2648 65.728 96.9994 65.5307C96.7407 65.3265 96.6114 64.9862 96.6114 64.5098C96.6114 64.0266 96.7407 63.6863 96.9994 63.4889C97.2648 63.2916 97.5881 63.1929 97.9692 63.1929ZM108.321 67.307C108.511 67.307 108.719 67.3172 108.943 67.3376C109.168 67.358 109.362 67.3852 109.525 67.4193L109.301 69.6652C109.158 69.6243 108.981 69.5937 108.77 69.5733C108.566 69.5529 108.382 69.5426 108.219 69.5426C107.79 69.5426 107.382 69.6141 106.994 69.757C106.606 69.8931 106.262 70.1041 105.963 70.39C105.663 70.669 105.428 71.0195 105.258 71.4414C105.088 71.8634 105.003 72.3534 105.003 72.9115V78.8223H102.594V67.5213H104.472L104.799 69.512H104.911C105.136 69.1105 105.415 68.743 105.748 68.4095C106.082 68.076 106.463 67.8106 106.891 67.6132C107.327 67.409 107.803 67.307 108.321 67.307ZM116.12 67.307C117.127 67.307 117.992 67.5145 118.713 67.9297C119.434 68.3448 119.989 68.9335 120.377 69.6958C120.765 70.458 120.959 71.37 120.959 72.4317V73.718H113.415C113.442 74.8137 113.735 75.6576 114.293 76.2497C114.858 76.8418 115.647 77.1378 116.661 77.1378C117.383 77.1378 118.029 77.0698 118.601 76.9337C119.179 76.7908 119.775 76.5832 120.387 76.3109V78.2608C119.822 78.5262 119.247 78.7202 118.662 78.8427C118.077 78.9652 117.376 79.0264 116.559 79.0264C115.45 79.0264 114.473 78.8121 113.629 78.3833C112.792 77.9477 112.135 77.3012 111.659 76.4437C111.189 75.5861 110.955 74.521 110.955 73.2484C110.955 71.9825 111.169 70.9072 111.598 70.0225C112.026 69.1377 112.629 68.4639 113.405 68.0011C114.18 67.5384 115.086 67.307 116.12 67.307ZM116.12 69.1139C115.365 69.1139 114.752 69.3589 114.283 69.8489C113.82 70.3389 113.548 71.0569 113.466 72.0029H118.611C118.604 71.438 118.509 70.9378 118.325 70.5023C118.148 70.0667 117.876 69.7264 117.508 69.4814C117.148 69.2364 116.685 69.1139 116.12 69.1139ZM131.259 75.5963C131.259 76.3382 131.079 76.9643 130.718 77.4747C130.358 77.9852 129.83 78.3731 129.136 78.6385C128.449 78.8971 127.605 79.0264 126.604 79.0264C125.815 79.0264 125.134 78.9686 124.563 78.8529C123.998 78.744 123.463 78.5739 122.96 78.3425V76.2701C123.497 76.5219 124.1 76.7397 124.767 76.9235C125.441 77.1072 126.077 77.1991 126.676 77.1991C127.465 77.1991 128.034 77.0766 128.381 76.8316C128.728 76.5798 128.901 76.2463 128.901 75.8311C128.901 75.5861 128.83 75.3684 128.687 75.1778C128.551 74.9804 128.292 74.7797 127.911 74.5755C127.537 74.3645 126.985 74.1127 126.257 73.8201C125.543 73.5342 124.94 73.2484 124.45 72.9625C123.96 72.6767 123.589 72.333 123.338 71.9315C123.086 71.5231 122.96 71.0025 122.96 70.3695C122.96 69.3691 123.355 68.6103 124.144 68.093C124.94 67.569 125.992 67.307 127.298 67.307C127.993 67.307 128.646 67.3784 129.259 67.5213C129.878 67.6575 130.484 67.8582 131.076 68.1237L130.32 69.9306C129.81 69.706 129.296 69.5222 128.779 69.3793C128.268 69.2296 127.748 69.1547 127.217 69.1547C126.597 69.1547 126.124 69.25 125.798 69.4406C125.478 69.6311 125.318 69.9034 125.318 70.2572C125.318 70.5227 125.396 70.7473 125.553 70.931C125.709 71.1148 125.978 71.2985 126.359 71.4823C126.747 71.666 127.285 71.894 127.972 72.1663C128.646 72.4249 129.228 72.6971 129.718 72.9829C130.215 73.262 130.596 73.6057 130.861 74.014C131.127 74.4224 131.259 74.9498 131.259 75.5963ZM136.272 76.3926L136.415 76.6274C136.292 77.1174 136.136 77.6449 135.945 78.2097C135.755 78.7746 135.547 79.3395 135.322 79.9044C135.098 80.4761 134.87 81.0137 134.638 81.5173H132.883C133.026 80.9661 133.162 80.3876 133.291 79.7819C133.427 79.183 133.55 78.5909 133.658 78.0056C133.774 77.4135 133.866 76.8758 133.934 76.3926H136.272ZM154.474 78.8223L153.014 74.6776H147.307L145.848 78.8223H143.265L148.818 63.836H151.534L157.077 78.8223H154.474ZM152.381 72.5746L150.962 68.4912C150.908 68.3142 150.829 68.0658 150.727 67.7459C150.625 67.4193 150.523 67.0892 150.421 66.7557C150.319 66.4154 150.234 66.1296 150.166 65.8982C150.098 66.1772 150.013 66.4903 149.911 66.8374C149.815 67.1777 149.72 67.4975 149.625 67.797C149.536 68.0964 149.468 68.3278 149.421 68.4912L147.991 72.5746H152.381ZM164.529 67.307C164.72 67.307 164.927 67.3172 165.152 67.3376C165.377 67.358 165.571 67.3852 165.734 67.4193L165.509 69.6652C165.366 69.6243 165.189 69.5937 164.978 69.5733C164.774 69.5529 164.591 69.5426 164.427 69.5426C163.998 69.5426 163.59 69.6141 163.202 69.757C162.814 69.8931 162.471 70.1041 162.171 70.39C161.872 70.669 161.637 71.0195 161.467 71.4414C161.297 71.8634 161.211 72.3534 161.211 72.9115V78.8223H158.802V67.5213H160.681L161.007 69.512H161.12C161.344 69.1105 161.623 68.743 161.957 68.4095C162.29 68.076 162.671 67.8106 163.1 67.6132C163.536 67.409 164.012 67.307 164.529 67.307ZM171.053 83.8449C169.521 83.8449 168.347 83.5693 167.531 83.018C166.714 82.4667 166.306 81.6943 166.306 80.7006C166.306 80.0065 166.523 79.4178 166.959 78.9346C167.394 78.4582 168.017 78.1281 168.827 77.9443C168.521 77.8082 168.255 77.5972 168.031 77.3114C167.813 77.0187 167.704 76.6955 167.704 76.3416C167.704 75.9196 167.823 75.5589 168.061 75.2595C168.3 74.96 168.657 74.6708 169.133 74.3917C168.541 74.1399 168.065 73.7316 167.704 73.1667C167.35 72.595 167.173 71.9247 167.173 71.1556C167.173 70.3389 167.347 69.6447 167.694 69.0731C168.041 68.4946 168.548 68.0556 169.215 67.7561C169.882 67.4499 170.688 67.2968 171.634 67.2968C171.839 67.2968 172.06 67.3104 172.298 67.3376C172.543 67.358 172.768 67.3852 172.972 67.4193C173.183 67.4465 173.343 67.4771 173.452 67.5111H177.361V68.8485L175.442 69.2058C175.626 69.4644 175.772 69.7604 175.881 70.0939C175.99 70.4206 176.045 70.7779 176.045 71.1658C176.045 72.3364 175.64 73.2586 174.83 73.9323C174.027 74.5993 172.917 74.9328 171.502 74.9328C171.161 74.9192 170.831 74.892 170.511 74.8511C170.266 75.0008 170.079 75.1676 169.95 75.3513C169.821 75.5283 169.756 75.7291 169.756 75.9536C169.756 76.1374 169.821 76.2871 169.95 76.4028C170.079 76.5117 170.27 76.5934 170.522 76.6478C170.78 76.7023 171.093 76.7295 171.461 76.7295H173.411C174.649 76.7295 175.595 76.9915 176.249 77.5156C176.902 78.0396 177.229 78.8087 177.229 79.8227C177.229 81.109 176.698 82.0992 175.636 82.7934C174.575 83.4944 173.047 83.8449 171.053 83.8449ZM171.144 82.1605C171.982 82.1605 172.686 82.0788 173.258 81.9155C173.829 81.7521 174.261 81.5173 174.554 81.2111C174.847 80.9116 174.993 80.5543 174.993 80.1392C174.993 79.7717 174.901 79.4892 174.717 79.2919C174.534 79.0945 174.258 78.9584 173.891 78.8835C173.523 78.8087 173.067 78.7712 172.523 78.7712H170.746C170.304 78.7712 169.913 78.8393 169.572 78.9754C169.232 79.1183 168.967 79.3225 168.776 79.5879C168.592 79.8533 168.5 80.1732 168.5 80.5475C168.5 81.0648 168.728 81.4629 169.184 81.7419C169.647 82.021 170.301 82.1605 171.144 82.1605ZM171.614 73.3607C172.315 73.3607 172.836 73.1701 173.176 72.789C173.516 72.4011 173.686 71.8566 173.686 71.1556C173.686 70.3934 173.509 69.8217 173.156 69.4406C172.808 69.0594 172.291 68.8689 171.604 68.8689C170.93 68.8689 170.416 69.0628 170.062 69.4508C169.715 69.8387 169.542 70.4138 169.542 71.176C169.542 71.8634 169.715 72.4011 170.062 72.789C170.416 73.1701 170.933 73.3607 171.614 73.3607ZM183.926 67.307C184.933 67.307 185.797 67.5145 186.519 67.9297C187.24 68.3448 187.795 68.9335 188.183 69.6958C188.571 70.458 188.764 71.37 188.764 72.4317V73.718H181.22C181.248 74.8137 181.54 75.6576 182.098 76.2497C182.663 76.8418 183.453 77.1378 184.467 77.1378C185.188 77.1378 185.835 77.0698 186.406 76.9337C186.985 76.7908 187.58 76.5832 188.193 76.3109V78.2608C187.628 78.5262 187.053 78.7202 186.468 78.8427C185.882 78.9652 185.181 79.0264 184.365 79.0264C183.255 79.0264 182.279 78.8121 181.435 78.3833C180.598 77.9477 179.941 77.3012 179.464 76.4437C178.995 75.5861 178.76 74.521 178.76 73.2484C178.76 71.9825 178.974 70.9072 179.403 70.0225C179.832 69.1377 180.434 68.4639 181.21 68.0011C181.986 67.5384 182.891 67.307 183.926 67.307ZM183.926 69.1139C183.17 69.1139 182.558 69.3589 182.088 69.8489C181.625 70.3389 181.353 71.0569 181.271 72.0029H186.416C186.41 71.438 186.314 70.9378 186.131 70.5023C185.954 70.0667 185.681 69.7264 185.314 69.4814C184.953 69.2364 184.49 69.1139 183.926 69.1139ZM197.36 67.307C198.633 67.307 199.623 67.637 200.331 68.2972C201.045 68.9505 201.403 70.002 201.403 71.4517V78.8223H199.004V71.9008C199.004 71.0229 198.823 70.3661 198.463 69.9306C198.102 69.4882 197.544 69.267 196.788 69.267C195.693 69.267 194.93 69.6039 194.502 70.2777C194.08 70.9514 193.869 71.9281 193.869 73.2075V78.8223H191.47V67.5213H193.338L193.675 69.0526H193.808C194.053 68.6579 194.355 68.3346 194.716 68.0828C195.084 67.8242 195.492 67.6302 195.941 67.5009C196.397 67.3716 196.87 67.307 197.36 67.307ZM208.967 77.0868C209.28 77.0868 209.59 77.0596 209.896 77.0051C210.203 76.9439 210.482 76.8724 210.733 76.7908V78.6079C210.468 78.7236 210.124 78.8223 209.702 78.9039C209.28 78.9856 208.841 79.0264 208.385 79.0264C207.746 79.0264 207.171 78.9209 206.66 78.71C206.15 78.4922 205.745 78.1213 205.445 77.5972C205.146 77.0732 204.996 76.3484 204.996 75.4228V69.3487H203.455V68.2768L205.108 67.4295L205.895 65.01H207.405V67.5213H210.642V69.3487H207.405V75.3922C207.405 75.9639 207.548 76.3892 207.834 76.6683C208.12 76.9473 208.498 77.0868 208.967 77.0868ZM215.429 67.5213V78.8223H213.03V67.5213H215.429ZM214.245 63.1929C214.613 63.1929 214.929 63.2916 215.195 63.4889C215.467 63.6863 215.603 64.0266 215.603 64.5098C215.603 64.9862 215.467 65.3265 215.195 65.5307C214.929 65.728 214.613 65.8267 214.245 65.8267C213.864 65.8267 213.541 65.728 213.275 65.5307C213.017 65.3265 212.887 64.9862 212.887 64.5098C212.887 64.0266 213.017 63.6863 213.275 63.4889C213.541 63.2916 213.864 63.1929 214.245 63.1929ZM224.76 67.307C226.033 67.307 227.023 67.637 227.731 68.2972C228.445 68.9505 228.803 70.002 228.803 71.4517V78.8223H226.404V71.9008C226.404 71.0229 226.223 70.3661 225.863 69.9306C225.502 69.4882 224.944 69.267 224.188 69.267C223.093 69.267 222.33 69.6039 221.902 70.2777C221.48 70.9514 221.269 71.9281 221.269 73.2075V78.8223H218.87V67.5213H220.738L221.075 69.0526H221.207C221.452 68.6579 221.755 68.3346 222.116 68.0828C222.483 67.8242 222.892 67.6302 223.341 67.5009C223.797 67.3716 224.27 67.307 224.76 67.307ZM236.592 67.307C238.021 67.307 239.1 67.6234 239.828 68.2564C240.563 68.8893 240.93 69.8761 240.93 71.2169V78.8223H239.226L238.766 77.2195H238.685C238.365 77.6279 238.035 77.9647 237.694 78.2302C237.354 78.4956 236.959 78.693 236.51 78.8223C236.068 78.9584 235.527 79.0264 234.887 79.0264C234.213 79.0264 233.611 78.9039 233.08 78.6589C232.549 78.4071 232.131 78.026 231.824 77.5156C231.518 77.0051 231.365 76.3586 231.365 75.5759C231.365 74.4121 231.797 73.5376 232.661 72.9523C233.533 72.367 234.846 72.0438 236.602 71.9825L238.562 71.911V71.3189C238.562 70.5363 238.378 69.9782 238.011 69.6447C237.65 69.3113 237.14 69.1445 236.479 69.1445C235.915 69.1445 235.367 69.2262 234.836 69.3895C234.305 69.5529 233.788 69.7536 233.284 69.9918L232.508 68.2972C233.06 68.0046 233.686 67.7664 234.387 67.5826C235.095 67.3988 235.83 67.307 236.592 67.307ZM238.552 73.4219L237.092 73.473C235.894 73.5138 235.054 73.718 234.57 74.0855C234.087 74.453 233.846 74.9566 233.846 75.5963C233.846 76.1544 234.012 76.5628 234.346 76.8214C234.679 77.0732 235.118 77.1991 235.663 77.1991C236.493 77.1991 237.18 76.9643 237.725 76.4947C238.276 76.0183 238.552 75.3207 238.552 74.4019V73.4219Z" fill="white"/>
<path d="M105.5 94.7248C105.5 95.8454 105.37 96.7846 105.112 97.5423C104.853 98.2955 104.468 98.8649 103.955 99.2506C103.447 99.6317 102.811 99.8223 102.049 99.8223H100.096V89.8723H102.131C102.87 89.8723 103.49 90.056 103.989 90.4235C104.488 90.7911 104.865 91.3355 105.119 92.0569C105.373 92.7783 105.5 93.6676 105.5 94.7248ZM104.37 94.7792C104.37 93.9126 104.286 93.1867 104.118 92.6014C103.95 92.0161 103.698 91.576 103.363 91.2811C103.027 90.9862 102.603 90.8387 102.09 90.8387H101.178V98.849H102.008C102.83 98.849 103.429 98.5088 103.805 97.8282C104.182 97.1431 104.37 96.1268 104.37 94.7792ZM108.168 92.3496V99.8223H107.126V92.3496H108.168ZM107.664 89.5456C107.877 89.5456 108.031 89.6137 108.127 89.7498C108.227 89.8859 108.276 90.0742 108.276 90.3147C108.276 90.5506 108.224 90.7366 108.12 90.8727C108.016 91.0088 107.864 91.0769 107.664 91.0769C107.469 91.0769 107.315 91.0088 107.201 90.8727C107.088 90.7366 107.031 90.5506 107.031 90.3147C107.031 90.0651 107.085 89.8746 107.194 89.743C107.303 89.6114 107.46 89.5456 107.664 89.5456ZM112.496 92.2203C112.6 92.2203 112.705 92.2293 112.809 92.2475C112.913 92.2611 113.022 92.286 113.136 92.3223L112.972 93.3977C112.891 93.3614 112.805 93.3364 112.714 93.3228C112.623 93.3092 112.526 93.3024 112.421 93.3024C112.217 93.3024 112.029 93.3704 111.856 93.5065C111.688 93.6381 111.543 93.8241 111.421 94.0646C111.298 94.3051 111.203 94.5841 111.135 94.9017C111.071 95.2193 111.042 95.5619 111.046 95.9294V99.8223H109.998V92.3496H110.815L110.958 93.6767H111.026C111.13 93.3908 111.253 93.139 111.393 92.9213C111.534 92.7035 111.695 92.5333 111.877 92.4108C112.063 92.2838 112.269 92.2203 112.496 92.2203ZM116.232 92.2271C116.741 92.2271 117.158 92.3745 117.485 92.6694C117.816 92.9644 118.061 93.3614 118.22 93.8604C118.383 94.3595 118.465 94.9153 118.465 95.5278V96.2697H114.905C114.914 97.1998 115.057 97.8985 115.334 98.3658C115.615 98.8332 116.037 99.0668 116.6 99.0668C116.868 99.0668 117.131 99.026 117.389 98.9443C117.648 98.8627 117.916 98.7311 118.192 98.5496V99.4888C117.934 99.6476 117.664 99.7656 117.383 99.8427C117.101 99.9198 116.802 99.9584 116.484 99.9584C115.863 99.9584 115.359 99.7928 114.973 99.4616C114.588 99.1258 114.306 98.6698 114.129 98.0936C113.957 97.5129 113.871 96.8572 113.871 96.1268C113.871 95.2919 113.959 94.5841 114.136 94.0034C114.313 93.4226 114.576 92.9825 114.926 92.6831C115.28 92.3791 115.715 92.2271 116.232 92.2271ZM116.232 93.0846C115.838 93.0846 115.529 93.2774 115.307 93.6631C115.084 94.0442 114.955 94.634 114.919 95.4326H117.485C117.485 95.0106 117.439 94.6227 117.349 94.2688C117.262 93.9104 117.126 93.6245 116.94 93.4113C116.759 93.1935 116.523 93.0846 116.232 93.0846ZM122.106 99.9584C121.557 99.9584 121.098 99.8155 120.731 99.5296C120.368 99.2438 120.096 98.8173 119.914 98.2501C119.733 97.683 119.642 96.9797 119.642 96.1404C119.642 95.3191 119.733 94.6159 119.914 94.0306C120.1 93.4453 120.379 92.9961 120.751 92.6831C121.123 92.37 121.588 92.2135 122.147 92.2135C122.428 92.2135 122.68 92.2429 122.902 92.3019C123.129 92.3609 123.34 92.4448 123.535 92.5537L123.201 93.4181C123.034 93.3273 122.866 93.2593 122.698 93.2139C122.534 93.1685 122.373 93.1458 122.215 93.1458C121.888 93.1458 121.613 93.2593 121.391 93.4861C121.169 93.7084 120.999 94.0397 120.881 94.4798C120.767 94.9199 120.711 95.4689 120.711 96.1268C120.711 96.7665 120.765 97.3019 120.874 97.7329C120.987 98.1639 121.155 98.4906 121.377 98.7129C121.604 98.9307 121.886 99.0396 122.221 99.0396C122.421 99.0396 122.623 99.0124 122.827 98.9579C123.036 98.899 123.245 98.815 123.453 98.7061V99.5909C123.263 99.7088 123.04 99.7996 122.786 99.8631C122.537 99.9266 122.31 99.9584 122.106 99.9584ZM126.897 99.9584C126.348 99.9584 125.89 99.8155 125.522 99.5296C125.159 99.2438 124.887 98.8173 124.706 98.2501C124.524 97.683 124.433 96.9797 124.433 96.1404C124.433 95.3191 124.524 94.6159 124.706 94.0306C124.892 93.4453 125.171 92.9961 125.543 92.6831C125.915 92.37 126.38 92.2135 126.938 92.2135C127.219 92.2135 127.471 92.2429 127.693 92.3019C127.92 92.3609 128.131 92.4448 128.326 92.5537L127.993 93.4181C127.825 93.3273 127.657 93.2593 127.489 93.2139C127.326 93.1685 127.165 93.1458 127.006 93.1458C126.679 93.1458 126.405 93.2593 126.182 93.4861C125.96 93.7084 125.79 94.0397 125.672 94.4798C125.558 94.9199 125.502 95.4689 125.502 96.1268C125.502 96.7665 125.556 97.3019 125.665 97.7329C125.779 98.1639 125.946 98.4906 126.169 98.7129C126.396 98.9307 126.677 99.0396 127.013 99.0396C127.212 99.0396 127.414 99.0124 127.618 98.9579C127.827 98.899 128.036 98.815 128.244 98.7061V99.5909C128.054 99.7088 127.832 99.7996 127.578 99.8631C127.328 99.9266 127.101 99.9584 126.897 99.9584ZM130.586 92.3496V99.8223H129.544V92.3496H130.586ZM130.082 89.5456C130.295 89.5456 130.45 89.6137 130.545 89.7498C130.645 89.8859 130.695 90.0742 130.695 90.3147C130.695 90.5506 130.642 90.7366 130.538 90.8727C130.434 91.0088 130.282 91.0769 130.082 91.0769C129.887 91.0769 129.733 91.0088 129.619 90.8727C129.506 90.7366 129.449 90.5506 129.449 90.3147C129.449 90.0651 129.504 89.8746 129.612 89.743C129.721 89.6114 129.878 89.5456 130.082 89.5456ZM137.051 96.0791C137.051 96.6689 137.001 97.2021 136.901 97.6785C136.802 98.1549 136.65 98.5632 136.445 98.9035C136.241 99.2438 135.983 99.5047 135.67 99.6862C135.356 99.8676 134.987 99.9584 134.56 99.9584C134.152 99.9584 133.793 99.8676 133.485 99.6862C133.176 99.5047 132.92 99.246 132.716 98.9103C132.512 98.57 132.357 98.1617 132.253 97.6853C132.149 97.2043 132.097 96.6689 132.097 96.0791C132.097 95.2533 132.185 94.5546 132.362 93.9829C132.539 93.4067 132.811 92.9689 133.179 92.6694C133.546 92.3654 134.013 92.2135 134.581 92.2135C135.111 92.2135 135.561 92.3609 135.928 92.6558C136.296 92.9462 136.575 93.3795 136.765 93.9557C136.956 94.5274 137.051 95.2352 137.051 96.0791ZM133.165 96.0791C133.165 96.7279 133.215 97.2724 133.315 97.7125C133.415 98.1526 133.569 98.4838 133.778 98.7061C133.991 98.9284 134.261 99.0396 134.587 99.0396C134.91 99.0396 135.173 98.9307 135.377 98.7129C135.586 98.4951 135.74 98.1685 135.84 97.7329C135.94 97.2928 135.989 96.7415 135.989 96.0791C135.989 95.4303 135.94 94.8881 135.84 94.4525C135.74 94.0124 135.586 93.6835 135.377 93.4657C135.173 93.2434 134.907 93.1322 134.581 93.1322C134.082 93.1322 133.721 93.3795 133.499 93.8741C133.276 94.3641 133.165 95.0991 133.165 96.0791ZM136.384 89.1509V89.2734C136.293 89.4231 136.173 89.5932 136.023 89.7838C135.874 89.9698 135.71 90.1627 135.533 90.3623C135.356 90.5574 135.18 90.7434 135.003 90.9204C134.826 91.0973 134.667 91.2493 134.526 91.3763H133.859V91.2198C134.041 90.9703 134.209 90.7275 134.363 90.4916C134.517 90.2557 134.658 90.0265 134.785 89.8042C134.912 89.5774 135.028 89.3596 135.132 89.1509H136.384ZM141.243 92.2135C141.833 92.2135 142.28 92.4199 142.584 92.8328C142.888 93.2457 143.04 93.8786 143.04 94.7316V99.8223H141.992V94.9426C141.992 94.3391 141.913 93.8877 141.754 93.5882C141.6 93.2888 141.355 93.139 141.019 93.139C140.529 93.139 140.17 93.3568 139.944 93.7924C139.717 94.228 139.603 94.9267 139.603 95.8886V99.8223H138.555V92.3496H139.392L139.508 93.4317H139.576C139.68 93.1821 139.814 92.9666 139.978 92.7851C140.141 92.6037 140.329 92.463 140.542 92.3632C140.756 92.2634 140.989 92.2135 141.243 92.2135Z" fill="#4D4B4B"/>
</svg>
