<svg width="399" height="298" viewBox="0 0 399 298" fill="none" xmlns="http://www.w3.org/2000/svg">
<g clip-path="url(#clip0_147_48)">
<path d="M0 251.554V129.971C0 101.456 17.8794 83.8774 46.1607 83.8774C74.4421 83.8774 92.3215 101.456 92.3215 129.971V251.554H62.6075V129.402C62.6075 119.035 56.2682 112.411 46.1607 112.411C36.0533 112.411 29.714 119.035 29.714 129.402V251.554H0Z" fill="#0F0F0F"/>
<path d="M194.751 207.479C194.751 235.993 176.577 253.572 148.59 253.572C120.603 253.572 102.429 235.993 102.429 207.479V129.99C102.429 101.476 120.309 83.897 148.59 83.897C176.871 83.897 194.751 101.476 194.751 129.99V207.479ZM132.143 208.341C132.143 218.708 138.208 225.058 148.59 225.058C158.972 225.058 165.037 218.728 165.037 208.341V129.402C165.037 119.035 158.697 112.411 148.59 112.411C138.482 112.411 132.143 119.035 132.143 129.402V208.341Z" fill="#0F0F0F"/>
<path d="M204.269 129.971C204.269 98.5756 220.716 83.8774 246.112 83.8774C253.904 83.8774 261.106 85.896 266.877 89.0708V43.8397H296.591V207.479C296.591 235.993 278.711 253.572 250.43 253.572C222.148 253.572 204.269 235.993 204.269 207.479V129.99V129.971ZM266.877 129.402C266.877 119.035 260.812 112.411 250.43 112.411C240.048 112.411 233.983 119.035 233.983 129.402V208.341C233.983 218.708 240.322 225.058 250.43 225.058C260.537 225.058 266.877 218.728 266.877 208.341V129.402Z" fill="#0F0F0F"/>
<path d="M399 184.138H336.393V208.91C336.393 219.277 342.457 225.626 352.839 225.626C363.222 225.626 369.286 219.296 369.286 208.91V196.524H399V207.479C399 235.993 380.826 253.572 352.839 253.572C324.853 253.572 306.679 235.993 306.679 207.479V129.99C306.679 101.476 324.558 83.897 352.839 83.897C381.121 83.897 399 101.476 399 129.99V184.158V184.138ZM336.393 157.623H369.286V128.815C369.286 118.447 362.947 111.823 352.839 111.823C342.732 111.823 336.393 118.447 336.393 128.815V157.623Z" fill="#0F0F0F"/>
<path d="M57.3083 24.5557V62.2417C57.3083 67.827 52.4607 71.2958 44.8654 71.2958C37.27 71.2958 32.4224 67.827 32.4224 62.2417V43.2909C32.4224 37.7056 37.4467 34.2369 44.6102 34.2369C48.8495 34.2369 52.5588 35.2559 54.6784 37.5097V24.5361H57.328L57.3083 24.5557ZM54.6588 42.8598C54.6588 38.372 50.871 35.9811 44.8654 35.9811C38.8597 35.9811 35.0719 38.6855 35.0719 43.1734V62.4377C35.0719 66.8668 38.7812 69.5712 44.8654 69.5712C50.9495 69.5712 54.6588 66.8668 54.6588 62.4377V42.8598Z" fill="#0F0F0F"/>
<path d="M68.8879 27.123C67.5534 27.123 66.5132 26.3587 66.5132 25.3984C66.5132 24.4381 67.573 23.6738 68.8879 23.6738C70.2029 23.6738 71.2627 24.4381 71.2627 25.3984C71.2627 26.3587 70.2029 27.123 68.8879 27.123ZM67.5534 70.8451V34.7072H70.2029V70.8451H67.5534Z" fill="#0F0F0F"/>
<path d="M80.6243 80.977V79.174H102.527V68.0034C100.407 70.2571 96.6981 71.2762 92.4588 71.2762C85.3149 71.2762 80.271 67.8074 80.271 62.2222V43.2713C80.271 37.686 85.1187 34.2173 92.714 34.2173C100.309 34.2173 105.157 37.686 105.157 43.2713V80.9574H80.6046L80.6243 80.977ZM102.507 43.1146C102.507 38.6855 98.7981 35.9811 92.714 35.9811C86.6299 35.9811 82.9205 38.6855 82.9205 43.1146V62.3789C82.9205 66.8668 86.6299 69.5712 92.714 69.5712C98.7981 69.5712 102.507 67.1999 102.507 62.7121V43.1342V43.1146Z" fill="#0F0F0F"/>
<path d="M116.737 27.123C115.422 27.123 114.362 26.3587 114.362 25.3984C114.362 24.4381 115.422 23.6738 116.737 23.6738C118.052 23.6738 119.111 24.4381 119.111 25.3984C119.111 26.3587 118.052 27.123 116.737 27.123ZM115.402 70.8451V34.7072H118.052V70.8451H115.402Z" fill="#0F0F0F"/>
<path d="M137.049 36.4906V70.8451H134.4V36.4906H124.606V34.6876H134.4V26.4763H137.049V34.6876H146.843V36.4906H137.049Z" fill="#0F0F0F"/>
<path d="M152.142 62.2417V59.8704C152.142 54.2851 157.166 50.8164 164.33 50.8164C168.569 50.8164 172.279 51.8355 174.398 54.0892V43.1734C174.398 38.6855 170.787 35.9811 164.781 35.9811C158.776 35.9811 155.165 38.6855 155.165 43.1734V47.6612H152.515V43.2909C152.515 37.7056 157.284 34.2369 164.781 34.2369C172.279 34.2369 177.048 37.7056 177.048 43.2909V62.2417C177.048 67.827 172.2 71.2958 164.605 71.2958C157.009 71.2958 152.162 67.827 152.162 62.2417H152.142ZM154.792 62.4377C154.792 66.8668 158.501 69.5712 164.585 69.5712C170.669 69.5712 174.379 66.8668 174.379 62.4377V59.7333C174.379 55.0495 170.669 52.541 164.585 52.541C158.501 52.541 154.792 55.2454 154.792 59.7333V62.4377Z" fill="#0F0F0F"/>
<path d="M187.096 70.8451V24.5557H189.746V70.8451H187.096Z" fill="#0F0F0F"/>
<path d="M282.852 288.103L275.905 284.654C273.314 283.38 271.901 281.656 271.901 279.853C271.901 276.6 274.943 274.307 279.751 274.307C284.56 274.307 287.602 276.521 287.602 280.107V282.91H285.914V280.029C285.914 277.148 283.598 275.424 279.751 275.424C275.905 275.424 273.589 277.148 273.589 279.774C273.589 281.127 274.727 282.577 276.749 283.596L283.579 287.006C286.797 288.613 287.818 290.259 287.818 292.219C287.818 295.785 284.717 298.02 279.85 298.02C274.982 298.02 271.881 295.805 271.881 292.219V289.416H273.569V292.336C273.569 295.178 275.944 296.903 279.83 296.903C283.716 296.903 286.091 295.178 286.091 292.336C286.091 290.69 285.247 289.338 282.813 288.103H282.852Z" fill="#0F0F0F"/>
<path d="M298.887 275.737V297.726H297.199V275.737H290.938V274.581H297.199V269.329H298.887V274.581H305.148V275.737H298.887Z" fill="#0F0F0F"/>
<path d="M325.166 274.581V292.199C325.166 295.766 322.065 298 317.198 298C312.331 298 309.23 295.785 309.23 292.199V274.581H310.918V292.297C310.918 295.178 313.293 296.903 317.179 296.903C321.065 296.903 323.439 295.178 323.439 292.297V274.581H325.127H325.166Z" fill="#0F0F0F"/>
<path d="M347.422 268.094V292.219C347.422 295.785 344.321 298.02 339.454 298.02C334.587 298.02 331.486 295.805 331.486 292.219V280.107C331.486 276.541 334.705 274.307 339.277 274.307C341.986 274.307 344.361 274.953 345.715 276.404V268.094H347.403H347.422ZM345.715 279.813C345.715 276.933 343.281 275.424 339.454 275.424C335.627 275.424 333.193 277.148 333.193 280.029V292.356C333.193 295.198 335.568 296.922 339.454 296.922C343.34 296.922 345.715 295.198 345.715 292.356V279.833V279.813Z" fill="#0F0F0F"/>
<path d="M354.821 269.74C353.977 269.74 353.291 269.25 353.291 268.623C353.291 267.996 353.958 267.506 354.821 267.506C355.685 267.506 356.352 267.996 356.352 268.623C356.352 269.25 355.665 269.74 354.821 269.74ZM353.977 297.726V274.601H355.665V297.726H353.977Z" fill="#0F0F0F"/>
<path d="M378.039 292.219C378.039 295.785 374.938 298.02 370.071 298.02C365.203 298.02 362.103 295.805 362.103 292.219V280.107C362.103 276.541 365.203 274.307 370.071 274.307C374.938 274.307 378.039 276.521 378.039 280.107V292.219ZM363.81 292.336C363.81 295.178 366.185 296.903 370.071 296.903C373.957 296.903 376.332 295.178 376.332 292.336V280.009C376.332 277.129 373.957 275.404 370.071 275.404C366.185 275.404 363.81 277.129 363.81 280.009V292.336Z" fill="#0F0F0F"/>
<path d="M281.518 30.5329C289.962 30.5329 296.807 23.6979 296.807 15.2665C296.807 6.83503 289.962 0 281.518 0C273.074 0 266.229 6.83503 266.229 15.2665C266.229 23.6979 273.074 30.5329 281.518 30.5329Z" fill="#0F0F0F"/>
</g>
<defs>
<clipPath id="clip0_147_48">
<rect width="399" height="298" fill="white"/>
</clipPath>
</defs>
</svg>
