<svg width="818" height="262" viewBox="0 0 818 262" fill="none" xmlns="http://www.w3.org/2000/svg">
<path d="M122.721 131.546V43.8098H107.652V33.0039H197.526V67.0883H185.18V43.8161H137.526V83.1839H160.734V66.7612H172.419V110.255H160.734V94.3294H137.526V131.552H156.696V142.855H107.652V131.552H122.721V131.54V131.546Z" fill="#0B0B0B"/>
<path d="M279.313 66.0297V132.488H292.174V142.57H266.131V129.292C262.564 134.532 258.634 138.4 254.351 140.885C250.068 143.369 245.226 143.304 239.622 143.304C230.39 143.304 223.47 142.388 219.074 137.928C214.678 133.482 212.483 126.525 212.483 117.078V76.4331H199.703V66.0234H226.162V117.078C226.162 122.871 227.565 127.229 230.363 130.142C233.168 133.066 237.338 134.532 242.892 134.532C249.753 134.532 255.269 132.337 259.42 127.94C263.571 123.544 265.64 117.682 265.64 110.367V76.4393H251.3V66.0297H279.319V66.0423L279.313 66.0297Z" fill="#0B0B0B"/>
<path d="M313.236 43.1556H300.418V33.0039H327.191V132.37H339.927V142.855H300.418V132.37H313.236V43.1556Z" fill="#0B0B0B"/>
<path d="M360.13 43.1556H347.312V33.0039H374.086V132.37H386.822V142.855H347.312V132.37H360.13V43.1556Z" fill="#0B0B0B"/>
<path d="M434.393 122.959V51.2234H420.135V72.6087H395.5V32.1465H504.908V72.615H480.437V51.2297H466.431V122.965H478.871V142.872H420.701V122.965H434.38L434.393 122.959Z" fill="#0B0B0B"/>
<path d="M555.455 118.165H584.153C582.901 126.7 579.058 133.247 572.631 137.782C566.203 142.33 557.612 144.601 546.845 144.601C533.065 144.601 522.209 140.795 514.247 133.185C506.298 125.574 502.316 115.171 502.316 101.975C502.316 88.7786 506.197 79.0923 513.958 71.4313C521.719 63.7704 531.995 59.9336 544.788 59.9336C557.58 59.9336 568.077 63.6572 575.291 71.098C582.511 78.5388 586.108 89.0302 586.108 102.547C586.108 103.912 586.027 106.082 585.857 109.032L585.775 109.604H532.725V110.095C532.725 114.642 533.801 118.127 535.964 120.567C538.121 123.008 541.26 124.222 545.348 124.222C547.536 124.222 549.486 123.7 551.216 122.668C552.939 121.637 554.341 120.127 555.436 118.152L555.455 118.165ZM532.744 93.7727H556.687C556.58 89.1245 555.486 85.5205 553.411 82.9794C551.335 80.4383 548.455 79.1615 544.794 79.1615C541.134 79.1615 538.385 80.3754 536.392 82.8159C534.398 85.2563 533.184 88.9107 532.744 93.779V93.7664V93.7727Z" fill="#0B0B0B"/>
<path d="M597.406 142.844V124.163H601.953L624.098 101.03L604.35 80.4556H599.23V62.0957H643.425V80.4556H636.978L648.129 92.1421L658.783 80.4556H652.337V62.0957H691.249V80.4556H686.211L665.884 100.709L687.695 124.176H692.481V142.857H647.463V124.176H656.047L642.343 109.691L629.211 124.176H637.639V142.857H597.406L597.419 142.844H597.406Z" fill="#0B0B0B"/>
<path d="M302.595 186.303H107.652V194.555H302.595V186.303Z" fill="#9F8662"/>
<path d="M497.536 186.303H302.594V194.555H497.536V186.303Z" fill="#C3AE90"/>
<path d="M692.482 186.303H497.539V194.555H692.482V186.303Z" fill="#DDDDDC"/>
<path d="M115.91 156.904V163.779H117.992C120.816 163.779 123.552 163.779 123.552 160.099C123.552 156.904 120.47 156.904 117.992 156.904H115.91ZM110.545 173.729V171.905H113.394V156.904H110.545V155.08H118.476C122.269 155.08 126.231 155.307 126.231 160.099C126.231 162.754 124.69 164.546 122.011 164.779V164.836C123.325 164.98 123.979 165.546 124.407 166.32C124.835 167.119 125.036 168.119 125.432 169.169L126.231 171.905H128.401V173.729H124.237L122.979 169.597C121.979 166.263 121.665 165.603 118.13 165.603H115.904V171.905H118.753V173.729H110.539H110.545Z" fill="#0B0B0B"/>
<path d="M129.852 173.729V171.905H132.701V156.904H129.852V155.08H146.109V160.728H143.94V156.904H135.21V163.408H139.374V160.728H141.543V167.918H139.374V165.238H135.21V171.912H143.94V167.918H146.109V173.736H129.852V173.729Z" fill="#0B0B0B"/>
<path d="M167.9 155.08V156.904H166.277L159.459 173.729H156.61L149.793 156.904H148.195V155.08H155.441V156.904H152.56L158.151 171.195L163.824 156.904H160.944V155.08H167.9Z" fill="#0B0B0B"/>
<path d="M169.449 173.729V171.905H172.298V156.904H169.449V155.08H185.707V160.728H183.537V156.904H174.808V163.408H178.971V160.728H181.141V167.918H178.971V165.238H174.808V171.912H183.537V167.918H185.707V173.736H169.449V173.729Z" fill="#0B0B0B"/>
<path d="M190.872 173.726H188.703V167.423H190.929C190.929 170.329 192.608 172.185 195.464 172.185C197.262 172.185 199.369 171.159 199.369 168.706C199.369 166.769 197.715 166.109 194.81 165.285C191.162 164.26 188.652 163.171 188.652 159.838C188.652 156.504 191.646 154.787 194.954 154.787C196.608 154.787 198.464 155.498 199.262 156.869H199.35V155.07H201.52V161.228H199.325C199.438 158.234 197.872 156.605 194.96 156.605C193.162 156.605 191.338 157.548 191.338 159.825C191.338 161.391 193.105 162.19 196.244 163.165C199.81 164.278 202.061 165.216 202.061 168.7C202.061 172.185 199.35 174.002 195.784 174.002C193.703 174.002 191.992 173.26 190.967 171.549H190.879V173.719L190.872 173.726Z" fill="#0B0B0B"/>
<path d="M208.345 173.729V171.905H211.427V156.904H206.521V161.181H204.352V155.08H221.006V161.181H218.836V156.904H213.93V171.905H217.012V173.729H208.339H208.345Z" fill="#0B0B0B"/>
<path d="M222.859 173.729V171.905H225.708V156.904H222.859V155.08H231.073V156.904H228.224V171.905H231.073V173.729H222.859Z" fill="#0B0B0B"/>
<path d="M232.496 173.729V171.905H235.345V156.904H232.496V155.08H239.741L245.131 170.71H245.188L250.836 155.08H257.823V156.904H254.974V171.905H257.823V173.729H249.892V171.905H252.458V156.904H252.402L246.301 173.729H244.018L237.917 156.904H237.861V171.905H240.427V173.729H232.496Z" fill="#0B0B0B"/>
<path d="M259.285 173.729V171.905H262.14V156.904H259.285V155.08H267.499V156.904H264.65V171.905H267.499V173.729H259.285Z" fill="#0B0B0B"/>
<path d="M269.27 173.729V171.905H272.119V156.904H269.27V155.08H285.527V160.728H283.358V156.904H274.628V163.408H278.792V160.728H280.961V167.918H278.792V165.238H274.628V171.912H283.358V167.918H285.527V173.736H269.27V173.729Z" fill="#0B0B0B"/>
<path d="M308.595 155.079V156.903H305.633V173.728H302.268L293.255 157.412H293.199V171.897H296.048V173.722H287.891V171.897H290.859V156.896H287.891V155.072H294.595L303.236 170.816H303.293V156.896H300.444V155.072H308.601L308.595 155.079Z" fill="#0B0B0B"/>
<path d="M314.505 173.729V171.905H317.587V156.904H312.682V161.181H310.512V155.08H327.166V161.181H324.996V156.904H320.09V171.905H323.172V173.729H314.505Z" fill="#0B0B0B"/>
<path d="M346.241 164.398C346.241 159.152 343.732 156.611 339.455 156.611C335.178 156.611 332.669 159.152 332.669 164.398C332.669 168.876 335.178 172.185 339.455 172.185C343.732 172.185 346.241 168.876 346.241 164.398ZM348.927 164.398C348.927 170.386 345.675 174.009 339.461 174.009C333.248 174.009 329.996 170.386 329.996 164.398C329.996 158.41 333.248 154.787 339.461 154.787C345.675 154.787 348.927 158.41 348.927 164.398Z" fill="#0B0B0B"/>
<path d="M364.716 156.904V164.408H367.484C369.905 164.408 372.301 164.125 372.301 160.64C372.301 157.156 369.905 156.904 367.484 156.904H364.716ZM359.358 173.729V171.905H362.207V156.904H359.358V155.08H367.484C371.421 155.08 374.98 155.879 374.98 160.64C374.98 165.402 371.414 166.232 367.484 166.232H364.716V171.905H368.138V173.729H359.352H359.358Z" fill="#0B0B0B"/>
<path d="M376.789 173.729V171.905H379.638V156.904H376.789V155.08H385.519V156.904H382.154V171.905H389.997V167.427H392.166V173.729H376.795H376.789Z" fill="#0B0B0B"/>
<path d="M407.767 165.739L404.371 157.5L400.918 165.739H407.761H407.767ZM393.792 173.727V171.903H395.843L403 155.078H405.994L413.069 171.903H415.119V173.727H407.446V171.903H410.295L408.497 167.57H400.138L398.283 171.991H401.189V173.734H393.773L393.792 173.727ZM408.226 149.656L404.459 153.763H402.635L405.088 149.656H408.226Z" fill="#0B0B0B"/>
<path d="M419.099 173.726H416.929V167.423H419.156C419.156 170.329 420.841 172.185 423.69 172.185C425.489 172.185 427.596 171.159 427.596 168.706C427.596 166.769 425.942 166.109 423.036 165.285C419.388 164.26 416.879 163.171 416.879 159.838C416.879 156.504 419.873 154.787 423.181 154.787C424.835 154.787 426.69 155.498 427.489 156.869H427.577V155.07H429.747V161.228H427.552C427.665 158.234 426.099 156.605 423.187 156.605C421.388 156.605 419.564 157.548 419.564 159.825C419.564 161.391 421.332 162.19 424.47 163.165C428.036 164.278 430.288 165.216 430.288 168.7C430.288 172.185 427.577 174.002 424.011 174.002C421.929 174.002 420.219 173.26 419.193 171.549H419.105V173.719L419.099 173.726Z" fill="#0B0B0B"/>
<path d="M436.568 173.729V171.905H439.65V156.904H434.744V161.181H432.574V155.08H449.228V161.181H447.058V156.904H442.153V171.905H445.235V173.729H436.568Z" fill="#0B0B0B"/>
<path d="M451.086 173.729V171.905H453.935V156.904H451.086V155.08H459.3V156.904H456.451V171.905H459.3V173.729H451.086Z" fill="#0B0B0B"/>
<path d="M478.805 155.082V161.755H476.635C476.32 158.359 474.295 156.623 471.019 156.623C466.742 156.623 464.232 159.164 464.232 164.41C464.232 168.888 466.515 172.196 471.019 172.196C473.786 172.196 476.207 170.454 476.207 167.404H478.886C478.886 172.14 475.151 174.02 471.012 174.02C464.792 174.02 461.547 170.398 461.547 164.41C461.547 158.422 464.798 154.799 471.012 154.799C472.691 154.799 475.515 155.566 476.572 157.397H476.629V155.088H478.798L478.805 155.082Z" fill="#0B0B0B"/>
<path d="M498.387 164.398C498.387 159.152 495.877 156.611 491.601 156.611C487.324 156.611 484.814 159.152 484.814 164.398C484.814 168.876 487.324 172.185 491.601 172.185C495.877 172.185 498.387 168.876 498.387 164.398ZM501.066 164.398C501.066 170.386 497.814 174.009 491.594 174.009C485.374 174.009 482.129 170.386 482.129 164.398C482.129 158.41 485.38 154.787 491.594 154.787C497.808 154.787 501.066 158.41 501.066 164.398Z" fill="#0B0B0B"/>
<path d="M515.802 173.729V171.905H518.884V156.904H513.978V161.181H511.809V155.08H528.463V161.181H526.293V156.904H521.387V171.905H524.469V173.729H515.802Z" fill="#0B0B0B"/>
<path d="M530.801 173.729V171.905H533.65V156.904H530.801V155.08H547.059V160.728H544.889V156.904H536.159V163.408H540.323V160.728H542.493V167.918H540.323V165.238H536.159V171.912H544.889V167.918H547.059V173.736H530.801V173.729Z" fill="#0B0B0B"/>
<path d="M549.166 173.729V171.905H551.104L557.405 163.892L551.902 156.904H549.846V155.08H557.632V156.904H554.808L559.028 162.263L563.248 156.904H560.594V155.08H568.091V156.904H566.041L560.537 163.892L566.896 171.905H568.751V173.729H560.764V171.905H563.846L558.795 165.546L553.777 171.905H556.915V173.729H549.16H549.166Z" fill="#0B0B0B"/>
<path d="M574.427 173.729V171.905H577.509V156.904H572.603V161.181H570.434V155.08H587.088V161.181H584.918V156.904H580.012V171.905H583.094V173.729H574.427Z" fill="#0B0B0B"/>
<path d="M608.419 155.08V156.904H605.998V166.603C605.998 171.54 603.488 174.019 598.583 174.019C592.595 174.019 591.256 170.339 591.256 166.603V156.904H588.715V155.08H596.759V156.904H593.765V166.603C593.765 169.169 594.595 172.195 598.639 172.195C602.149 172.195 603.488 169.943 603.488 166.603V156.904H600.696V155.08H608.425H608.419Z" fill="#0B0B0B"/>
<path d="M615.08 156.904V163.779H617.161C619.985 163.779 622.721 163.779 622.721 160.099C622.721 156.904 619.639 156.904 617.161 156.904H615.08ZM609.721 173.729V171.905H612.57V156.904H609.721V155.08H617.646C621.438 155.08 625.4 155.307 625.4 160.099C625.4 162.754 623.859 164.546 621.18 164.779V164.836C622.495 164.98 623.149 165.546 623.576 166.32C624.004 167.119 624.205 168.119 624.602 169.169L625.4 171.905H627.57V173.729H623.407L622.155 169.597C621.155 166.263 620.841 165.603 617.306 165.603H615.08V171.905H617.929V173.729H609.715H609.721Z" fill="#0B0B0B"/>
<path d="M642.286 165.741L638.89 157.502L635.437 165.741H642.279H642.286ZM628.311 173.729V171.905H630.368L637.525 155.08H640.518L647.588 171.905H649.644V173.729H641.971V171.905H644.82L643.022 167.572H634.669L632.814 171.993H635.72V173.736H628.305L628.311 173.729Z" fill="#0B0B0B"/>
<path d="M650.939 173.729V171.905H653.788V156.904H650.939V155.08H657.814C664.6 155.08 669.361 156.621 669.361 164.376C669.361 172.132 664.6 173.729 657.814 173.729H650.939ZM656.298 156.904V171.905H657.807C663.084 171.905 666.675 170.452 666.675 164.402C666.675 158.351 663.084 156.898 657.807 156.898H656.298V156.904Z" fill="#0B0B0B"/>
<path d="M688.545 164.398C688.545 159.152 686.035 156.611 681.758 156.611C677.482 156.611 674.972 159.152 674.972 164.398C674.972 168.876 677.482 172.185 681.758 172.185C686.035 172.185 688.545 168.876 688.545 164.398ZM691.224 164.398C691.224 170.386 687.972 174.009 681.758 174.009C675.545 174.009 672.293 170.386 672.293 164.398C672.293 158.41 675.545 154.787 681.758 154.787C687.972 154.787 691.224 158.41 691.224 164.398Z" fill="#0B0B0B"/>
<path fill-rule="evenodd" clip-rule="evenodd" d="M133.188 212.141H102.238V242.917H133.188V212.141ZM128.339 217.015H107.125V238.055H128.339V217.015Z" fill="#0B0B0B"/>
<path fill-rule="evenodd" clip-rule="evenodd" d="M221.579 213.808C220.592 214.248 219.661 214.789 218.793 215.425L240.384 236.955C241.013 236.093 241.56 235.162 242 234.181L221.573 213.814L221.579 213.808ZM243.346 227.432C243.114 219.274 236.522 212.701 228.34 212.475L243.346 227.432ZM213.453 222.381C213.831 221.4 214.302 220.463 214.868 219.588L236.208 240.867C235.328 241.427 234.39 241.898 233.403 242.276L213.453 222.387V222.381ZM226.227 243.194L212.535 229.545C213.309 236.722 219.026 242.42 226.227 243.194Z" fill="#0B0B0B"/>
<path fill-rule="evenodd" clip-rule="evenodd" d="M322.62 234.48V243.242C326.726 243.242 330.789 242.443 334.582 240.883C338.374 239.33 341.821 237.047 344.72 234.172C347.619 231.298 349.921 227.882 351.494 224.127C353.066 220.372 353.871 216.347 353.871 212.277H345.066C345.06 224.542 335.022 234.48 322.638 234.48H322.613H322.62Z" fill="#0B0B0B"/>
<path fill-rule="evenodd" clip-rule="evenodd" d="M432.605 212.471V217.138H456.769V243.24H461.121V212.641V212.471H432.612H432.605Z" fill="#0B0B0B"/>
<path fill-rule="evenodd" clip-rule="evenodd" d="M576.923 233.281C577.307 232.281 577.577 231.243 577.741 230.199H547.043C547.206 231.25 547.477 232.281 547.861 233.281H576.923ZM551.684 238.986C557.678 244.634 567.106 244.634 573.099 238.986H551.684ZM576.565 221.551C576.999 222.507 577.326 223.494 577.552 224.501H547.232C547.458 223.494 547.785 222.507 548.219 221.551H576.565ZM552.678 215.852H572.106C566.445 211.349 558.339 211.349 552.678 215.852Z" fill="#0B0B0B"/>
<path fill-rule="evenodd" clip-rule="evenodd" d="M698.204 212.463H667.254V243.239H698.204V212.463ZM693.354 217.337H672.141V238.377H693.354V217.337Z" fill="#0B0B0B"/>
<path opacity="0.3" d="M752.459 243.562H31.4375" stroke="#0B0B0B" stroke-width="0.890052" stroke-miterlimit="10" stroke-dasharray="3.56 3.56"/>
<path opacity="0.3" d="M752.459 211.488H31.4375" stroke="#0B0B0B" stroke-width="0.890052" stroke-miterlimit="10" stroke-dasharray="3.56 3.56"/>
<path opacity="0.51" d="M107.332 261.675V0" stroke="#0B0B0B" stroke-width="0.890052" stroke-miterlimit="10" stroke-dasharray="3.56 3.56"/>
<path opacity="0.51" d="M698.324 261.675V0" stroke="#0B0B0B" stroke-width="0.890052" stroke-miterlimit="10" stroke-dasharray="3.56 3.56"/>
<path opacity="0.51" d="M101.664 261.675L101.664 0" stroke="#0B0B0B" stroke-width="0.890052" stroke-miterlimit="10" stroke-dasharray="3.56 3.56"/>
<path opacity="0.51" d="M692.658 261.675L692.658 0" stroke="#0B0B0B" stroke-width="0.890052" stroke-miterlimit="10" stroke-dasharray="3.56 3.56"/>
<path opacity="0.34" d="M797.944 30.4141H0.199219" stroke="#0B0B0B" stroke-width="0.890052" stroke-miterlimit="10" stroke-dasharray="3.56 3.56"/>
<path opacity="0.3" d="M797.95 144.191H0.199219" stroke="#0B0B0B" stroke-width="0.890052" stroke-miterlimit="10" stroke-dasharray="3.56 3.56"/>
</svg>
