<svg width="308" height="112" viewBox="0 0 308 112" fill="none" xmlns="http://www.w3.org/2000/svg">
<g filter="url(#filter0_d_118_46)">
<path d="M149.265 48.5377L156.368 37.8831M177.677 7.10303L130.323 26.0446L174.126 44.9862L177.677 7.10303ZM162.287 22.4931L146.897 33.1477L148.931 47.3823C149.116 48.6751 149.442 48.6538 149.655 47.3752L151.633 35.5154L162.287 22.4931Z" stroke="white" stroke-width="1.07216"/>
<path d="M11.6104 67.3094C12.8831 67.3094 13.8733 67.6395 14.5811 68.2996C15.2957 68.953 15.653 70.0045 15.653 71.4541V78.8247H13.254V71.9033C13.254 71.0253 13.0737 70.3686 12.713 69.933C12.3523 69.4906 11.7942 69.2695 11.0387 69.2695C9.94302 69.2695 9.18078 69.6063 8.75202 70.2801C8.33006 70.9539 8.11909 71.9305 8.11909 73.21V78.8247H5.72007V67.5238H7.58824L7.92512 69.0551H8.05783C8.30284 68.6603 8.6057 68.3371 8.9664 68.0853C9.33391 67.8266 9.74225 67.6327 10.1914 67.5034C10.6474 67.3741 11.1204 67.3094 11.6104 67.3094ZM29.0161 73.1487C29.0161 74.0879 28.8936 74.9216 28.6486 75.6498C28.4036 76.378 28.0463 76.994 27.5767 77.4976C27.1071 77.9944 26.5422 78.3755 25.8821 78.641C25.2219 78.8996 24.4767 79.0289 23.6464 79.0289C22.8705 79.0289 22.1593 78.8996 21.5128 78.641C20.8662 78.3755 20.3048 77.9944 19.8284 77.4976C19.3588 76.994 18.9946 76.378 18.736 75.6498C18.4774 74.9216 18.3481 74.0879 18.3481 73.1487C18.3481 71.9033 18.5625 70.8484 18.9912 69.9841C19.4268 69.1129 20.0461 68.4494 20.8492 67.9934C21.6523 67.5374 22.6085 67.3094 23.7178 67.3094C24.7591 67.3094 25.6779 67.5374 26.4742 67.9934C27.2704 68.4494 27.8931 69.1129 28.3423 69.9841C28.7915 70.8552 29.0161 71.9101 29.0161 73.1487ZM20.8186 73.1487C20.8186 73.9722 20.9173 74.6766 21.1146 75.2619C21.3188 75.8472 21.6319 76.2964 22.0538 76.6094C22.4758 76.9157 23.0202 77.0688 23.6872 77.0688C24.3542 77.0688 24.8986 76.9157 25.3206 76.6094C25.7425 76.2964 26.0522 75.8472 26.2496 75.2619C26.4469 74.6766 26.5456 73.9722 26.5456 73.1487C26.5456 72.3252 26.4469 71.6276 26.2496 71.056C26.0522 70.4775 25.7425 70.0385 25.3206 69.7391C24.8986 69.4328 24.3508 69.2797 23.677 69.2797C22.6834 69.2797 21.9585 69.6131 21.5026 70.2801C21.0466 70.9471 20.8186 71.9033 20.8186 73.1487ZM35.57 79.0289C34.2225 79.0289 33.1404 78.5389 32.3237 77.5588C31.5138 76.572 31.1089 75.119 31.1089 73.1998C31.1089 71.2601 31.5206 69.7935 32.3441 68.7999C33.1744 67.8062 34.2667 67.3094 35.6211 67.3094C36.1927 67.3094 36.693 67.3877 37.1217 67.5442C37.5505 67.6939 37.918 67.8981 38.2243 68.1567C38.5373 68.4153 38.8027 68.7046 39.0205 69.0244H39.1328C39.0988 68.8135 39.058 68.5106 39.0103 68.1159C38.9695 67.7143 38.9491 67.3434 38.9491 67.0031V62.9401H41.3583V78.8247H39.4799L39.0511 77.2832H38.9491C38.7449 77.6099 38.4863 77.9059 38.1732 78.1714C37.8669 78.43 37.4994 78.6375 37.0707 78.7941C36.6487 78.9506 36.1485 79.0289 35.57 79.0289ZM36.2438 77.079C37.2714 77.079 37.9963 76.783 38.4182 76.1909C38.8402 75.5988 39.058 74.7106 39.0716 73.5264V73.21C39.0716 71.9441 38.8674 70.9743 38.459 70.3005C38.0507 69.62 37.3055 69.2797 36.2234 69.2797C35.359 69.2797 34.6989 69.6302 34.2429 70.3312C33.7937 71.0253 33.5691 71.9952 33.5691 73.2406C33.5691 74.4861 33.7937 75.4389 34.2429 76.099C34.6989 76.7524 35.3658 77.079 36.2438 77.079ZM49.3006 67.3094C50.3078 67.3094 51.1722 67.517 51.8936 67.9321C52.615 68.3473 53.1696 68.936 53.5576 69.6982C53.9455 70.4605 54.1395 71.3724 54.1395 72.4341V73.7204H46.5953C46.6225 74.8161 46.9152 75.66 47.4732 76.2521C48.0381 76.8442 48.8276 77.1403 49.8416 77.1403C50.563 77.1403 51.2096 77.0722 51.7813 76.9361C52.3598 76.7932 52.9553 76.5856 53.5678 76.3134V78.2632C53.0029 78.5287 52.4278 78.7226 51.8425 78.8451C51.2572 78.9676 50.5562 79.0289 49.7396 79.0289C48.6302 79.0289 47.6536 78.8145 46.8097 78.3857C45.9726 77.9502 45.3158 77.3036 44.8394 76.4461C44.3698 75.5886 44.135 74.5235 44.135 73.2508C44.135 71.9849 44.3494 70.9096 44.7782 70.0249C45.2069 69.1401 45.8092 68.4664 46.5851 68.0036C47.3609 67.5408 48.2661 67.3094 49.3006 67.3094ZM49.3006 69.1163C48.5451 69.1163 47.9326 69.3613 47.463 69.8513C47.0002 70.3414 46.728 71.0594 46.6463 72.0054H51.7915C51.7847 71.4405 51.6894 70.9403 51.5056 70.5047C51.3287 70.0691 51.0565 69.7288 50.689 69.4838C50.3282 69.2388 49.8655 69.1163 49.3006 69.1163ZM60.6423 79.0289C59.2948 79.0289 58.2127 78.5389 57.396 77.5588C56.5861 76.572 56.1812 75.119 56.1812 73.1998C56.1812 71.2601 56.5929 69.7935 57.4164 68.7999C58.2467 67.8062 59.339 67.3094 60.6934 67.3094C61.2651 67.3094 61.7653 67.3877 62.194 67.5442C62.6228 67.6939 62.9903 67.8981 63.2966 68.1567C63.6096 68.4153 63.8751 68.7046 64.0928 69.0244H64.2051C64.1711 68.8135 64.1303 68.5106 64.0826 68.1159C64.0418 67.7143 64.0214 67.3434 64.0214 67.0031V62.9401H66.4306V78.8247H64.5522L64.1235 77.2832H64.0214C63.8172 77.6099 63.5586 77.9059 63.2455 78.1714C62.9393 78.43 62.5718 78.6375 62.143 78.7941C61.721 78.9506 61.2208 79.0289 60.6423 79.0289ZM61.3161 77.079C62.3438 77.079 63.0686 76.783 63.4905 76.1909C63.9125 75.5988 64.1303 74.7106 64.1439 73.5264V73.21C64.1439 71.9441 63.9397 70.9743 63.5314 70.3005C63.123 69.62 62.3778 69.2797 61.2957 69.2797C60.4314 69.2797 59.7712 69.6302 59.3152 70.3312C58.866 71.0253 58.6415 71.9952 58.6415 73.2406C58.6415 74.4861 58.866 75.4389 59.3152 76.099C59.7712 76.7524 60.4382 77.079 61.3161 77.079ZM72.2699 67.5238V78.8247H69.8709V67.5238H72.2699ZM71.0857 63.1953C71.4532 63.1953 71.7697 63.294 72.0351 63.4914C72.3074 63.6888 72.4435 64.029 72.4435 64.5122C72.4435 64.9886 72.3074 65.3289 72.0351 65.5331C71.7697 65.7305 71.4532 65.8292 71.0857 65.8292C70.7046 65.8292 70.3813 65.7305 70.1159 65.5331C69.8573 65.3289 69.728 64.9886 69.728 64.5122C69.728 64.029 69.8573 63.6888 70.1159 63.4914C70.3813 63.294 70.7046 63.1953 71.0857 63.1953ZM78.9362 83.8473C77.4049 83.8473 76.2309 83.5717 75.4142 83.0204C74.5975 82.4692 74.1892 81.6967 74.1892 80.7031C74.1892 80.0089 74.4069 79.4202 74.8425 78.937C75.2781 78.4606 75.9008 78.1305 76.7107 77.9468C76.4044 77.8107 76.139 77.5997 75.9144 77.3138C75.6966 77.0212 75.5877 76.6979 75.5877 76.344C75.5877 75.9221 75.7068 75.5614 75.945 75.2619C76.1832 74.9625 76.5405 74.6732 77.0169 74.3942C76.4248 74.1424 75.9484 73.734 75.5877 73.1691C75.2338 72.5975 75.0569 71.9271 75.0569 71.158C75.0569 70.3414 75.2304 69.6472 75.5775 69.0755C75.9246 68.497 76.4316 68.058 77.0986 67.7586C77.7656 67.4523 78.572 67.2992 79.518 67.2992C79.7222 67.2992 79.9434 67.3128 80.1816 67.34C80.4266 67.3604 80.6512 67.3877 80.8554 67.4217C81.0664 67.4489 81.2263 67.4795 81.3352 67.5136H85.2451V68.8509L83.3259 69.2082C83.5096 69.4668 83.6559 69.7629 83.7648 70.0964C83.8737 70.423 83.9282 70.7803 83.9282 71.1683C83.9282 72.3388 83.5232 73.261 82.7133 73.9348C81.9103 74.6017 80.8009 74.9352 79.3853 74.9352C79.045 74.9216 78.715 74.8944 78.3951 74.8536C78.1501 75.0033 77.9629 75.17 77.8336 75.3538C77.7043 75.5307 77.6397 75.7315 77.6397 75.9561C77.6397 76.1398 77.7043 76.2896 77.8336 76.4053C77.9629 76.5142 78.1535 76.5958 78.4053 76.6503C78.6639 76.7047 78.977 76.7319 79.3445 76.7319H81.2943C82.533 76.7319 83.479 76.994 84.1323 77.518C84.7857 78.042 85.1124 78.8111 85.1124 79.8251C85.1124 81.1114 84.5815 82.1017 83.5198 82.7959C82.4581 83.4968 80.9302 83.8473 78.9362 83.8473ZM79.028 82.1629C79.8651 82.1629 80.5695 82.0813 81.1412 81.9179C81.7129 81.7546 82.1451 81.5198 82.4377 81.2135C82.7304 80.9141 82.8767 80.5568 82.8767 80.1416C82.8767 79.7741 82.7848 79.4917 82.601 79.2943C82.4173 79.0969 82.1417 78.9608 81.7741 78.886C81.4066 78.8111 80.9507 78.7737 80.4062 78.7737H78.6299C78.1875 78.7737 77.7962 78.8417 77.4559 78.9778C77.1156 79.1208 76.8502 79.3249 76.6596 79.5904C76.4759 79.8558 76.384 80.1756 76.384 80.55C76.384 81.0672 76.612 81.4653 77.068 81.7444C77.5308 82.0234 78.1841 82.1629 79.028 82.1629ZM79.4976 73.3631C80.1986 73.3631 80.7193 73.1725 81.0595 72.7914C81.3998 72.4035 81.57 71.859 81.57 71.158C81.57 70.3958 81.393 69.8241 81.0391 69.443C80.692 69.0619 80.1748 68.8713 79.4874 68.8713C78.8137 68.8713 78.2998 69.0653 77.9459 69.4532C77.5988 69.8411 77.4253 70.4162 77.4253 71.1785C77.4253 71.8658 77.5988 72.4035 77.9459 72.7914C78.2998 73.1725 78.8171 73.3631 79.4976 73.3631ZM89.7062 67.5238V78.8247H87.3072V67.5238H89.7062ZM88.522 63.1953C88.8895 63.1953 89.206 63.294 89.4714 63.4914C89.7437 63.6888 89.8798 64.029 89.8798 64.5122C89.8798 64.9886 89.7437 65.3289 89.4714 65.5331C89.206 65.7305 88.8895 65.8292 88.522 65.8292C88.1409 65.8292 87.8176 65.7305 87.5522 65.5331C87.2936 65.3289 87.1643 64.9886 87.1643 64.5122C87.1643 64.029 87.2936 63.6888 87.5522 63.4914C87.8176 63.294 88.1409 63.1953 88.522 63.1953ZM97.3525 77.0892C97.6655 77.0892 97.9752 77.062 98.2815 77.0076C98.5877 76.9463 98.8667 76.8749 99.1186 76.7932V78.6103C98.8531 78.726 98.5094 78.8247 98.0875 78.9064C97.6655 78.988 97.2266 79.0289 96.7706 79.0289C96.1308 79.0289 95.5558 78.9234 95.0453 78.7124C94.5349 78.4946 94.13 78.1237 93.8305 77.5997C93.531 77.0756 93.3813 76.3508 93.3813 75.4252V69.3511H91.8398V68.2792L93.4936 67.4319L94.2797 65.0125H95.7906V67.5238H99.0267V69.3511H95.7906V75.3946C95.7906 75.9663 95.9335 76.3917 96.2193 76.6707C96.5052 76.9497 96.8829 77.0892 97.3525 77.0892ZM105.846 67.3094C107.275 67.3094 108.354 67.6259 109.082 68.2588C109.817 68.8917 110.185 69.8786 110.185 71.2193V78.8247H108.48L108.02 77.222H107.939C107.619 77.6303 107.289 77.9672 106.949 78.2326C106.608 78.498 106.214 78.6954 105.764 78.8247C105.322 78.9608 104.781 79.0289 104.141 79.0289C103.467 79.0289 102.865 78.9064 102.334 78.6614C101.803 78.4096 101.385 78.0284 101.079 77.518C100.772 77.0076 100.619 76.361 100.619 75.5784C100.619 74.4146 101.051 73.5401 101.916 72.9548C102.787 72.3695 104.1 72.0462 105.856 71.9849L107.816 71.9135V71.3214C107.816 70.5387 107.633 69.9807 107.265 69.6472C106.904 69.3137 106.394 69.147 105.734 69.147C105.169 69.147 104.621 69.2286 104.09 69.392C103.559 69.5553 103.042 69.7561 102.538 69.9943L101.763 68.2996C102.314 68.007 102.94 67.7688 103.641 67.585C104.349 67.4013 105.084 67.3094 105.846 67.3094ZM107.806 73.4244L106.346 73.4754C105.148 73.5162 104.308 73.7204 103.825 74.0879C103.342 74.4554 103.1 74.9591 103.1 75.5988C103.1 76.1569 103.267 76.5652 103.6 76.8238C103.934 77.0756 104.373 77.2015 104.917 77.2015C105.747 77.2015 106.435 76.9667 106.979 76.4971C107.53 76.0207 107.806 75.3232 107.806 74.4044V73.4244ZM115.953 78.8247H113.543V62.9401H115.953V78.8247ZM126.978 75.5988C126.978 76.3406 126.797 76.9667 126.437 77.4772C126.076 77.9876 125.549 78.3755 124.854 78.641C124.167 78.8996 123.323 79.0289 122.323 79.0289C121.533 79.0289 120.853 78.971 120.281 78.8553C119.716 78.7464 119.182 78.5763 118.678 78.3449V76.2726C119.216 76.5244 119.818 76.7422 120.485 76.9259C121.159 77.1097 121.795 77.2015 122.394 77.2015C123.184 77.2015 123.752 77.079 124.099 76.834C124.446 76.5822 124.62 76.2487 124.62 75.8336C124.62 75.5886 124.548 75.3708 124.405 75.1802C124.269 74.9829 124.011 74.7821 123.629 74.5779C123.255 74.367 122.704 74.1151 121.976 73.8225C121.261 73.5367 120.659 73.2508 120.169 72.965C119.679 72.6791 119.308 72.3354 119.056 71.9339C118.804 71.5256 118.678 71.0049 118.678 70.372C118.678 69.3715 119.073 68.6127 119.862 68.0955C120.659 67.5714 121.71 67.3094 123.017 67.3094C123.711 67.3094 124.364 67.3809 124.977 67.5238C125.596 67.6599 126.202 67.8607 126.794 68.1261L126.039 69.933C125.528 69.7084 125.014 69.5247 124.497 69.3818C123.987 69.232 123.466 69.1572 122.935 69.1572C122.316 69.1572 121.843 69.2524 121.516 69.443C121.196 69.6336 121.036 69.9058 121.036 70.2597C121.036 70.5251 121.115 70.7497 121.271 70.9335C121.428 71.1172 121.697 71.301 122.078 71.4847C122.466 71.6685 123.003 71.8965 123.691 72.1687C124.364 72.4273 124.946 72.6995 125.436 72.9854C125.933 73.2644 126.314 73.6081 126.58 74.0165C126.845 74.4248 126.978 74.9522 126.978 75.5988ZM133.777 77.0892C134.09 77.0892 134.399 77.062 134.706 77.0076C135.012 76.9463 135.291 76.8749 135.543 76.7932V78.6103C135.277 78.726 134.934 78.8247 134.512 78.9064C134.09 78.988 133.651 79.0289 133.195 79.0289C132.555 79.0289 131.98 78.9234 131.47 78.7124C130.959 78.4946 130.554 78.1237 130.255 77.5997C129.955 77.0756 129.806 76.3508 129.806 75.4252V69.3511H128.264V68.2792L129.918 67.4319L130.704 65.0125H132.215V67.5238H135.451V69.3511H132.215V75.3946C132.215 75.9663 132.358 76.3917 132.644 76.6707C132.929 76.9497 133.307 77.0892 133.777 77.0892ZM147.691 67.5238V78.8247H145.802L145.476 77.3036H145.343C145.105 77.6916 144.802 78.0148 144.435 78.2734C144.067 78.5253 143.659 78.7124 143.21 78.8349C142.76 78.9642 142.287 79.0289 141.791 79.0289C140.94 79.0289 140.212 78.886 139.606 78.6001C139.007 78.3075 138.548 77.8583 138.228 77.2526C137.908 76.6469 137.748 75.8642 137.748 74.9046V67.5238H140.157V74.4554C140.157 75.3334 140.334 75.9901 140.688 76.4257C141.049 76.8613 141.607 77.079 142.362 77.079C143.09 77.079 143.669 76.9293 144.098 76.6299C144.526 76.3304 144.829 75.888 145.006 75.3027C145.19 74.7174 145.282 73.9994 145.282 73.1487V67.5238H147.691ZM154.929 79.0289C153.581 79.0289 152.499 78.5389 151.683 77.5588C150.873 76.572 150.468 75.119 150.468 73.1998C150.468 71.2601 150.88 69.7935 151.703 68.7999C152.533 67.8062 153.626 67.3094 154.98 67.3094C155.552 67.3094 156.052 67.3877 156.481 67.5442C156.909 67.6939 157.277 67.8981 157.583 68.1567C157.896 68.4153 158.162 68.7046 158.379 69.0244H158.492C158.458 68.8135 158.417 68.5106 158.369 68.1159C158.328 67.7143 158.308 67.3434 158.308 67.0031V62.9401H160.717V78.8247H158.839L158.41 77.2832H158.308C158.104 77.6099 157.845 77.9059 157.532 78.1714C157.226 78.43 156.858 78.6375 156.43 78.7941C156.008 78.9506 155.507 79.0289 154.929 79.0289ZM155.603 77.079C156.63 77.079 157.355 76.783 157.777 76.1909C158.199 75.5988 158.417 74.7106 158.431 73.5264V73.21C158.431 71.9441 158.226 70.9743 157.818 70.3005C157.41 69.62 156.664 69.2797 155.582 69.2797C154.718 69.2797 154.058 69.6302 153.602 70.3312C153.153 71.0253 152.928 71.9952 152.928 73.2406C152.928 74.4861 153.153 75.4389 153.602 76.099C154.058 76.7524 154.725 77.079 155.603 77.079ZM166.557 67.5238V78.8247H164.158V67.5238H166.557ZM165.372 63.1953C165.74 63.1953 166.056 63.294 166.322 63.4914C166.594 63.6888 166.73 64.029 166.73 64.5122C166.73 64.9886 166.594 65.3289 166.322 65.5331C166.056 65.7305 165.74 65.8292 165.372 65.8292C164.991 65.8292 164.668 65.7305 164.403 65.5331C164.144 65.3289 164.015 64.9886 164.015 64.5122C164.015 64.029 164.144 63.6888 164.403 63.4914C164.668 63.294 164.991 63.1953 165.372 63.1953ZM180.001 73.1487C180.001 74.0879 179.879 74.9216 179.634 75.6498C179.389 76.378 179.031 76.994 178.562 77.4976C178.092 77.9944 177.527 78.3755 176.867 78.641C176.207 78.8996 175.462 79.0289 174.632 79.0289C173.856 79.0289 173.145 78.8996 172.498 78.641C171.851 78.3755 171.29 77.9944 170.814 77.4976C170.344 76.994 169.98 76.378 169.721 75.6498C169.463 74.9216 169.333 74.0879 169.333 73.1487C169.333 71.9033 169.548 70.8484 169.976 69.9841C170.412 69.1129 171.031 68.4494 171.834 67.9934C172.637 67.5374 173.594 67.3094 174.703 67.3094C175.744 67.3094 176.663 67.5374 177.459 67.9934C178.256 68.4494 178.878 69.1129 179.328 69.9841C179.777 70.8552 180.001 71.9101 180.001 73.1487ZM171.804 73.1487C171.804 73.9722 171.902 74.6766 172.1 75.2619C172.304 75.8472 172.617 76.2964 173.039 76.6094C173.461 76.9157 174.005 77.0688 174.672 77.0688C175.339 77.0688 175.884 76.9157 176.306 76.6094C176.728 76.2964 177.037 75.8472 177.235 75.2619C177.432 74.6766 177.531 73.9722 177.531 73.1487C177.531 72.3252 177.432 71.6276 177.235 71.056C177.037 70.4775 176.728 70.0385 176.306 69.7391C175.884 69.4328 175.336 69.2797 174.662 69.2797C173.669 69.2797 172.944 69.6131 172.488 70.2801C172.032 70.9471 171.804 71.9033 171.804 73.1487ZM198.673 71.352C198.673 71.9986 198.598 72.6349 198.448 73.261C198.299 73.8803 198.071 74.4418 197.764 74.9454C197.458 75.4423 197.073 75.8404 196.611 76.1398C196.155 76.4393 195.614 76.589 194.988 76.589C194.416 76.589 193.939 76.4359 193.558 76.1296C193.177 75.8234 192.929 75.4457 192.813 74.9965H192.68C192.408 75.4389 192.03 75.8166 191.547 76.1296C191.071 76.4359 190.486 76.589 189.791 76.589C188.634 76.589 187.743 76.2283 187.117 75.5069C186.497 74.7787 186.188 73.8191 186.188 72.6281C186.188 71.7025 186.378 70.8858 186.759 70.178C187.141 69.4634 187.682 68.9019 188.383 68.4936C189.09 68.0853 189.921 67.8811 190.873 67.8811C191.506 67.8811 192.139 67.9389 192.772 68.0546C193.412 68.1635 193.916 68.2826 194.283 68.4119L194.079 72.6077C194.065 72.805 194.055 72.9752 194.048 73.1181C194.048 73.2542 194.048 73.3495 194.048 73.4039C194.048 74.0641 194.154 74.5065 194.365 74.7311C194.576 74.9488 194.824 75.0577 195.11 75.0577C195.491 75.0577 195.811 74.891 196.07 74.5575C196.335 74.2172 196.536 73.768 196.672 73.21C196.808 72.6451 196.876 72.0224 196.876 71.3418C196.876 70.11 196.624 69.0585 196.121 68.1873C195.624 67.3162 194.94 66.6527 194.069 66.1967C193.198 65.7407 192.204 65.5127 191.088 65.5127C189.944 65.5127 188.93 65.693 188.046 66.0537C187.168 66.4145 186.426 66.9215 185.82 67.5748C185.221 68.2282 184.769 69.004 184.462 69.9024C184.156 70.7939 184.003 71.7774 184.003 72.8527C184.003 74.173 184.238 75.2959 184.707 76.2215C185.177 77.1403 185.868 77.8379 186.78 78.3143C187.699 78.7907 188.818 79.0289 190.138 79.0289C190.962 79.0289 191.782 78.9404 192.599 78.7635C193.422 78.5797 194.167 78.3619 194.834 78.1101V79.7537C194.201 80.0191 193.494 80.2335 192.711 80.3968C191.928 80.5602 191.084 80.6418 190.179 80.6418C188.498 80.6418 187.059 80.3356 185.861 79.7231C184.67 79.1105 183.755 78.2258 183.115 77.0688C182.482 75.9119 182.166 74.5269 182.166 72.9139C182.166 71.6208 182.37 70.4298 182.778 69.3409C183.193 68.2452 183.789 67.2924 184.565 66.4825C185.34 65.6658 186.276 65.0329 187.372 64.5837C188.474 64.1345 189.71 63.9099 191.078 63.9099C192.554 63.9099 193.865 64.2128 195.008 64.8185C196.151 65.4174 197.046 66.2715 197.693 67.3809C198.346 68.4902 198.673 69.8139 198.673 71.352ZM188.127 72.6689C188.127 73.4992 188.297 74.1049 188.638 74.4861C188.978 74.8672 189.441 75.0577 190.026 75.0577C190.775 75.0577 191.312 74.7821 191.639 74.2308C191.966 73.6796 192.156 72.9548 192.211 72.0564L192.333 69.5961C192.156 69.5485 191.949 69.5111 191.711 69.4838C191.472 69.4498 191.217 69.4328 190.945 69.4328C190.264 69.4328 189.716 69.5893 189.301 69.9024C188.893 70.2086 188.594 70.6102 188.403 71.107C188.219 71.597 188.127 72.1177 188.127 72.6689ZM204.747 83.8473C203.216 83.8473 202.042 83.5717 201.225 83.0204C200.408 82.4692 200 81.6967 200 80.7031C200 80.0089 200.218 79.4202 200.653 78.937C201.089 78.4606 201.712 78.1305 202.521 77.9468C202.215 77.8107 201.95 77.5997 201.725 77.3138C201.507 77.0212 201.399 76.6979 201.399 76.344C201.399 75.9221 201.518 75.5614 201.756 75.2619C201.994 74.9625 202.351 74.6732 202.828 74.3942C202.236 74.1424 201.759 73.734 201.399 73.1691C201.045 72.5975 200.868 71.9271 200.868 71.158C200.868 70.3414 201.041 69.6472 201.388 69.0755C201.735 68.497 202.242 68.058 202.909 67.7586C203.576 67.4523 204.383 67.2992 205.329 67.2992C205.533 67.2992 205.754 67.3128 205.992 67.34C206.237 67.3604 206.462 67.3877 206.666 67.4217C206.877 67.4489 207.037 67.4795 207.146 67.5136H211.056V68.8509L209.137 69.2082C209.32 69.4668 209.467 69.7629 209.576 70.0964C209.685 70.423 209.739 70.7803 209.739 71.1683C209.739 72.3388 209.334 73.261 208.524 73.9348C207.721 74.6017 206.612 74.9352 205.196 74.9352C204.856 74.9216 204.526 74.8944 204.206 74.8536C203.961 75.0033 203.774 75.17 203.644 75.3538C203.515 75.5307 203.45 75.7315 203.45 75.9561C203.45 76.1398 203.515 76.2896 203.644 76.4053C203.774 76.5142 203.964 76.5958 204.216 76.6503C204.475 76.7047 204.788 76.7319 205.155 76.7319H207.105C208.344 76.7319 209.29 76.994 209.943 77.518C210.596 78.042 210.923 78.8111 210.923 79.8251C210.923 81.1114 210.392 82.1017 209.331 82.7959C208.269 83.4968 206.741 83.8473 204.747 83.8473ZM204.839 82.1629C205.676 82.1629 206.38 82.0813 206.952 81.9179C207.524 81.7546 207.956 81.5198 208.248 81.2135C208.541 80.9141 208.687 80.5568 208.687 80.1416C208.687 79.7741 208.596 79.4917 208.412 79.2943C208.228 79.0969 207.952 78.9608 207.585 78.886C207.217 78.8111 206.761 78.7737 206.217 78.7737H204.441C203.998 78.7737 203.607 78.8417 203.267 78.9778C202.926 79.1208 202.661 79.3249 202.47 79.5904C202.287 79.8558 202.195 80.1756 202.195 80.55C202.195 81.0672 202.423 81.4653 202.879 81.7444C203.342 82.0234 203.995 82.1629 204.839 82.1629ZM205.308 73.3631C206.009 73.3631 206.53 73.1725 206.87 72.7914C207.211 72.4035 207.381 71.859 207.381 71.158C207.381 70.3958 207.204 69.8241 206.85 69.443C206.503 69.0619 205.986 68.8713 205.298 68.8713C204.624 68.8713 204.111 69.0653 203.757 69.4532C203.41 69.8411 203.236 70.4162 203.236 71.1785C203.236 71.8658 203.41 72.4035 203.757 72.7914C204.111 73.1725 204.628 73.3631 205.308 73.3631ZM225.889 67.3094C227.155 67.3094 228.108 67.6361 228.747 68.2894C229.394 68.9428 229.717 69.9909 229.717 71.4337V78.8247H227.318V71.8624C227.318 71.0049 227.151 70.3584 226.818 69.9228C226.484 69.4872 225.977 69.2695 225.297 69.2695C224.344 69.2695 223.657 69.5757 223.235 70.1882C222.82 70.7939 222.612 71.6753 222.612 72.8323V78.8247H220.213V71.8624C220.213 71.2908 220.138 70.8144 219.988 70.4332C219.845 70.0453 219.624 69.7561 219.325 69.5655C219.025 69.3681 218.648 69.2695 218.192 69.2695C217.532 69.2695 217.004 69.4192 216.609 69.7186C216.221 70.0181 215.942 70.4605 215.772 71.0458C215.602 71.6242 215.517 72.3354 215.517 73.1794V78.8247H213.118V67.5238H214.986L215.323 69.0449H215.456C215.687 68.6501 215.973 68.3269 216.313 68.0751C216.66 67.8164 217.045 67.6259 217.467 67.5034C217.889 67.3741 218.328 67.3094 218.784 67.3094C219.628 67.3094 220.339 67.4591 220.917 67.7586C221.496 68.0512 221.928 68.5004 222.214 69.1061H222.398C222.752 68.4936 223.245 68.041 223.878 67.7484C224.511 67.4557 225.181 67.3094 225.889 67.3094ZM237.496 67.3094C238.925 67.3094 240.004 67.6259 240.732 68.2588C241.467 68.8917 241.835 69.8786 241.835 71.2193V78.8247H240.13L239.671 77.222H239.589C239.269 77.6303 238.939 77.9672 238.599 78.2326C238.258 78.498 237.864 78.6954 237.414 78.8247C236.972 78.9608 236.431 79.0289 235.791 79.0289C235.118 79.0289 234.515 78.9064 233.984 78.6614C233.454 78.4096 233.035 78.0284 232.729 77.518C232.422 77.0076 232.269 76.361 232.269 75.5784C232.269 74.4146 232.702 73.5401 233.566 72.9548C234.437 72.3695 235.75 72.0462 237.506 71.9849L239.466 71.9135V71.3214C239.466 70.5387 239.283 69.9807 238.915 69.6472C238.554 69.3137 238.044 69.147 237.384 69.147C236.819 69.147 236.271 69.2286 235.74 69.392C235.209 69.5553 234.692 69.7561 234.189 69.9943L233.413 68.2996C233.964 68.007 234.59 67.7688 235.291 67.585C235.999 67.4013 236.734 67.3094 237.496 67.3094ZM239.456 73.4244L237.996 73.4754C236.799 73.5162 235.958 73.7204 235.475 74.0879C234.992 74.4554 234.75 74.9591 234.75 75.5988C234.75 76.1569 234.917 76.5652 235.25 76.8238C235.584 77.0756 236.023 77.2015 236.567 77.2015C237.397 77.2015 238.085 76.9667 238.629 76.4971C239.181 76.0207 239.456 75.3232 239.456 74.4044V73.4244ZM247.592 67.5238V78.8247H245.193V67.5238H247.592ZM246.408 63.1953C246.776 63.1953 247.092 63.294 247.358 63.4914C247.63 63.6888 247.766 64.029 247.766 64.5122C247.766 64.9886 247.63 65.3289 247.358 65.5331C247.092 65.7305 246.776 65.8292 246.408 65.8292C246.027 65.8292 245.704 65.7305 245.438 65.5331C245.18 65.3289 245.051 64.9886 245.051 64.5122C245.051 64.029 245.18 63.6888 245.438 63.4914C245.704 63.294 246.027 63.1953 246.408 63.1953ZM253.442 78.8247H251.033V62.9401H253.442V78.8247ZM256.525 77.5588C256.525 77.0008 256.668 76.6094 256.954 76.3849C257.246 76.1535 257.6 76.0378 258.015 76.0378C258.431 76.0378 258.784 76.1535 259.077 76.3849C259.377 76.6094 259.526 77.0008 259.526 77.5588C259.526 78.1033 259.377 78.498 259.077 78.743C258.784 78.9812 258.431 79.1003 258.015 79.1003C257.6 79.1003 257.246 78.9812 256.954 78.743C256.668 78.498 256.525 78.1033 256.525 77.5588ZM267.162 79.0289C266.094 79.0289 265.168 78.8213 264.386 78.4062C263.603 77.991 263.001 77.3547 262.579 76.4971C262.157 75.6396 261.946 74.5507 261.946 73.2304C261.946 71.8556 262.177 70.7327 262.64 69.8616C263.103 68.9904 263.742 68.3473 264.559 67.9321C265.383 67.517 266.325 67.3094 267.387 67.3094C268.061 67.3094 268.67 67.3775 269.214 67.5136C269.766 67.6429 270.232 67.8028 270.613 67.9934L269.898 69.9126C269.483 69.7425 269.058 69.5995 268.622 69.4838C268.187 69.3681 267.768 69.3103 267.367 69.3103C266.706 69.3103 266.155 69.4566 265.713 69.7493C265.277 70.0419 264.951 70.4775 264.733 71.056C264.522 71.6344 264.416 72.3525 264.416 73.21C264.416 74.0403 264.525 74.7413 264.743 75.3129C264.961 75.8778 265.284 76.3066 265.713 76.5992C266.142 76.8851 266.669 77.028 267.295 77.028C267.914 77.028 268.469 76.9531 268.959 76.8034C269.449 76.6537 269.912 76.4597 270.347 76.2215V78.3041C269.919 78.5491 269.459 78.7294 268.969 78.8451C268.479 78.9676 267.877 79.0289 267.162 79.0289ZM283.006 73.1487C283.006 74.0879 282.884 74.9216 282.639 75.6498C282.394 76.378 282.036 76.994 281.567 77.4976C281.097 77.9944 280.532 78.3755 279.872 78.641C279.212 78.8996 278.467 79.0289 277.636 79.0289C276.861 79.0289 276.149 78.8996 275.503 78.641C274.856 78.3755 274.295 77.9944 273.818 77.4976C273.349 76.994 272.985 76.378 272.726 75.6498C272.467 74.9216 272.338 74.0879 272.338 73.1487C272.338 71.9033 272.552 70.8484 272.981 69.9841C273.417 69.1129 274.036 68.4494 274.839 67.9934C275.642 67.5374 276.598 67.3094 277.708 67.3094C278.749 67.3094 279.668 67.5374 280.464 67.9934C281.26 68.4494 281.883 69.1129 282.332 69.9841C282.782 70.8552 283.006 71.9101 283.006 73.1487ZM274.809 73.1487C274.809 73.9722 274.907 74.6766 275.105 75.2619C275.309 75.8472 275.622 76.2964 276.044 76.6094C276.466 76.9157 277.01 77.0688 277.677 77.0688C278.344 77.0688 278.889 76.9157 279.311 76.6094C279.733 76.2964 280.042 75.8472 280.24 75.2619C280.437 74.6766 280.536 73.9722 280.536 73.1487C280.536 72.3252 280.437 71.6276 280.24 71.056C280.042 70.4775 279.733 70.0385 279.311 69.7391C278.889 69.4328 278.341 69.2797 277.667 69.2797C276.673 69.2797 275.949 69.6131 275.493 70.2801C275.037 70.9471 274.809 71.9033 274.809 73.1487ZM298.533 67.3094C299.799 67.3094 300.752 67.6361 301.392 68.2894C302.038 68.9428 302.362 69.9909 302.362 71.4337V78.8247H299.963V71.8624C299.963 71.0049 299.796 70.3584 299.462 69.9228C299.129 69.4872 298.622 69.2695 297.941 69.2695C296.988 69.2695 296.301 69.5757 295.879 70.1882C295.464 70.7939 295.256 71.6753 295.256 72.8323V78.8247H292.857V71.8624C292.857 71.2908 292.783 70.8144 292.633 70.4332C292.49 70.0453 292.269 69.7561 291.969 69.5655C291.67 69.3681 291.292 69.2695 290.836 69.2695C290.176 69.2695 289.648 69.4192 289.254 69.7186C288.866 70.0181 288.587 70.4605 288.417 71.0458C288.247 71.6242 288.161 72.3354 288.161 73.1794V78.8247H285.762V67.5238H287.631L287.967 69.0449H288.1C288.332 68.6501 288.617 68.3269 288.958 68.0751C289.305 67.8164 289.689 67.6259 290.111 67.5034C290.533 67.3741 290.972 67.3094 291.428 67.3094C292.272 67.3094 292.983 67.4591 293.562 67.7586C294.14 68.0512 294.572 68.5004 294.858 69.1061H295.042C295.396 68.4936 295.889 68.041 296.522 67.7484C297.155 67.4557 297.826 67.3094 298.533 67.3094Z" fill="white"/>
<path d="M147.759 99.8247L145.343 91.372H145.289C145.307 91.676 145.32 91.9505 145.329 92.1955C145.343 92.4359 145.352 92.6447 145.357 92.8216C145.361 92.9986 145.364 93.1437 145.364 93.2572V99.8247H144.336V89.8747H145.867L148.242 98.1505H148.283L150.665 89.8747H152.217V99.8247H151.155V93.2844C151.155 93.1619 151.157 93.0099 151.162 92.8284C151.167 92.6469 151.173 92.4359 151.182 92.1955C151.196 91.9505 151.207 91.676 151.216 91.372H151.169L148.753 99.8247H147.759ZM156.13 92.2159C156.82 92.2159 157.312 92.4359 157.607 92.8761C157.902 93.3162 158.049 93.9536 158.049 94.7885V99.8247H157.253L157.097 98.763H157.069C156.951 99.0171 156.811 99.2349 156.647 99.4164C156.484 99.5933 156.298 99.7294 156.089 99.8247C155.881 99.9155 155.64 99.9608 155.368 99.9608C154.982 99.9608 154.667 99.8587 154.422 99.6546C154.177 99.4504 153.995 99.1827 153.877 98.8515C153.76 98.5157 153.701 98.155 153.701 97.7694C153.701 97.0298 153.914 96.4559 154.34 96.0475C154.767 95.6392 155.372 95.4169 156.157 95.3806L157.008 95.3261V94.8157C157.008 94.2168 156.926 93.7789 156.763 93.5022C156.6 93.2254 156.337 93.087 155.974 93.087C155.765 93.087 155.545 93.1233 155.314 93.1959C155.087 93.2685 154.839 93.3842 154.572 93.543L154.238 92.7535C154.52 92.5721 154.819 92.4382 155.137 92.352C155.459 92.2613 155.79 92.2159 156.13 92.2159ZM157.022 96.0952L156.328 96.1428C155.801 96.1746 155.409 96.3243 155.15 96.592C154.896 96.8551 154.769 97.2385 154.769 97.7422C154.769 98.2095 154.853 98.5543 155.021 98.7766C155.189 98.9989 155.42 99.1101 155.715 99.1101C156.128 99.1101 156.448 98.9105 156.675 98.5112C156.906 98.1119 157.022 97.5607 157.022 96.8574V96.0952ZM160.915 92.352V99.8247H159.873V92.352H160.915ZM160.411 89.548C160.624 89.548 160.779 89.6161 160.874 89.7522C160.974 89.8883 161.024 90.0766 161.024 90.3171C161.024 90.553 160.971 90.7391 160.867 90.8752C160.763 91.0113 160.611 91.0793 160.411 91.0793C160.216 91.0793 160.062 91.0113 159.948 90.8752C159.835 90.7391 159.778 90.553 159.778 90.3171C159.778 90.0676 159.833 89.877 159.941 89.7454C160.05 89.6138 160.207 89.548 160.411 89.548ZM163.793 99.8247H162.745V89.235H163.793V99.8247Z" fill="#4D4B4B"/>
</g>
<defs>
<filter id="filter0_d_118_46" x="0" y="0" width="308" height="111.825" filterUnits="userSpaceOnUse" color-interpolation-filters="sRGB">
<feFlood flood-opacity="0" result="BackgroundImageFix"/>
<feColorMatrix in="SourceAlpha" type="matrix" values="0 0 0 0 0 0 0 0 0 0 0 0 0 0 0 0 0 0 127 0" result="hardAlpha"/>
<feOffset dy="4"/>
<feGaussianBlur stdDeviation="2"/>
<feComposite in2="hardAlpha" operator="out"/>
<feColorMatrix type="matrix" values="0 0 0 0 0 0 0 0 0 0 0 0 0 0 0 0 0 0 0.25 0"/>
<feBlend mode="normal" in2="BackgroundImageFix" result="effect1_dropShadow_118_46"/>
<feBlend mode="normal" in="SourceGraphic" in2="effect1_dropShadow_118_46" result="shape"/>
</filter>
</defs>
</svg>
