<svg width="44" height="88" viewBox="0 0 44 88" fill="none" xmlns="http://www.w3.org/2000/svg">
<g clip-path="url(#clip0_19_100)">
<path d="M0 88V35.1642C0 22.7729 7.85653 15.1336 20.2838 15.1336C32.7111 15.1336 40.5676 22.7729 40.5676 35.1642V88H27.5108V34.9172C27.5108 30.4121 24.7252 27.5335 20.2838 27.5335C15.8424 27.5335 13.0568 30.4121 13.0568 34.9172V88H0Z" fill="white"/>
<path d="M37.2816 13.2686C40.992 13.2686 43.9998 10.2983 43.9998 6.63428C43.9998 2.97027 40.992 0 37.2816 0C33.5713 0 30.5635 2.97027 30.5635 6.63428C30.5635 10.2983 33.5713 13.2686 37.2816 13.2686Z" fill="white"/>
</g>
<defs>
<clipPath id="clip0_19_100">
<rect width="44" height="88" fill="white"/>
</clipPath>
</defs>
</svg>
