<svg width="25" height="24" viewBox="0 0 25 24" fill="none" xmlns="http://www.w3.org/2000/svg">
<path d="M12.5 2.25C10.5716 2.25 8.68657 2.82183 7.08319 3.89317C5.47982 4.96451 4.23013 6.48726 3.49218 8.26884C2.75422 10.0504 2.56114 12.0108 2.93735 13.9021C3.31355 15.7934 4.24215 17.5307 5.60571 18.8943C6.96928 20.2579 8.70656 21.1865 10.5979 21.5627C12.4892 21.9389 14.4496 21.7458 16.2312 21.0078C18.0127 20.2699 19.5355 19.0202 20.6068 17.4168C21.6782 15.8134 22.25 13.9284 22.25 12C22.2473 9.41498 21.2192 6.93661 19.3913 5.10872C17.5634 3.28084 15.085 2.25273 12.5 2.25ZM12.5 20.25C10.8683 20.25 9.27326 19.7661 7.91655 18.8596C6.55984 17.9531 5.50242 16.6646 4.878 15.1571C4.25358 13.6496 4.0902 11.9908 4.40853 10.3905C4.72685 8.79016 5.51259 7.32015 6.66637 6.16637C7.82016 5.01259 9.29017 4.22685 10.8905 3.90852C12.4909 3.59019 14.1497 3.75357 15.6571 4.37799C17.1646 5.00242 18.4531 6.05984 19.3596 7.41655C20.2661 8.77325 20.75 10.3683 20.75 12C20.7475 14.1873 19.8775 16.2843 18.3309 17.8309C16.7843 19.3775 14.6873 20.2475 12.5 20.25ZM14.6647 13.1447C15.254 12.8291 15.721 12.3258 15.9917 11.7145C16.2623 11.1033 16.321 10.4191 16.1585 9.77069C15.996 9.12226 15.6216 8.54668 15.0946 8.13531C14.5677 7.72394 13.9185 7.50034 13.25 7.5H10.25C10.0511 7.5 9.86033 7.57902 9.71967 7.71967C9.57902 7.86032 9.5 8.05109 9.5 8.25V15.75C9.5 15.9489 9.57902 16.1397 9.71967 16.2803C9.86033 16.421 10.0511 16.5 10.25 16.5C10.4489 16.5 10.6397 16.421 10.7803 16.2803C10.921 16.1397 11 15.9489 11 15.75V13.5H13.0991L14.8803 16.1663C14.9907 16.3318 15.1624 16.4468 15.3575 16.4858C15.5527 16.5249 15.7553 16.4848 15.9209 16.3744C16.0865 16.264 16.2015 16.0923 16.2405 15.8972C16.2796 15.702 16.2395 15.4993 16.1291 15.3337L14.6647 13.1447ZM11 9H13.25C13.6478 9 14.0294 9.15804 14.3107 9.43934C14.592 9.72064 14.75 10.1022 14.75 10.5C14.75 10.8978 14.592 11.2794 14.3107 11.5607C14.0294 11.842 13.6478 12 13.25 12H11V9Z" fill="white"/>
</svg>
