<svg width="128" height="62" viewBox="0 0 128 62" fill="none" xmlns="http://www.w3.org/2000/svg">
<path d="M10.0098 35.2012C10.0098 36.0475 9.79818 36.7702 9.375 37.3691C8.95833 37.9616 8.3724 38.4141 7.61719 38.7266C6.86198 39.0391 5.97331 39.1953 4.95117 39.1953C4.41081 39.1953 3.89974 39.1693 3.41797 39.1172C2.9362 39.0651 2.49349 38.9902 2.08984 38.8926C1.6862 38.7949 1.33138 38.6745 1.02539 38.5312V36.9395C1.51367 37.1413 2.10938 37.3301 2.8125 37.5059C3.51562 37.6751 4.2513 37.7598 5.01953 37.7598C5.73568 37.7598 6.34115 37.6654 6.83594 37.4766C7.33073 37.2812 7.70508 37.0046 7.95898 36.6465C8.2194 36.2819 8.34961 35.8457 8.34961 35.3379C8.34961 34.8496 8.24219 34.4427 8.02734 34.1172C7.8125 33.7852 7.45443 33.4857 6.95312 33.2188C6.45833 32.9453 5.78125 32.6556 4.92188 32.3496C4.31641 32.1348 3.78255 31.9004 3.32031 31.6465C2.85807 31.3861 2.4707 31.0931 2.1582 30.7676C1.8457 30.4421 1.60807 30.0645 1.44531 29.6348C1.28906 29.2051 1.21094 28.7135 1.21094 28.1602C1.21094 27.3984 1.40299 26.7474 1.78711 26.207C2.17773 25.6602 2.71484 25.2435 3.39844 24.957C4.08854 24.6641 4.87956 24.5176 5.77148 24.5176C6.5332 24.5176 7.23633 24.5892 7.88086 24.7324C8.5319 24.8757 9.1276 25.0677 9.66797 25.3086L9.15039 26.7344C8.63607 26.5195 8.08919 26.3405 7.50977 26.1973C6.93685 26.054 6.3444 25.9824 5.73242 25.9824C5.12044 25.9824 4.60286 26.0736 4.17969 26.2559C3.76302 26.4316 3.44401 26.6823 3.22266 27.0078C3.0013 27.3333 2.89062 27.7207 2.89062 28.1699C2.89062 28.6712 2.99479 29.0879 3.20312 29.4199C3.41797 29.752 3.75651 30.0482 4.21875 30.3086C4.6875 30.5625 5.30599 30.8294 6.07422 31.1094C6.91406 31.4154 7.62695 31.7409 8.21289 32.0859C8.79883 32.4245 9.24479 32.8411 9.55078 33.3359C9.85677 33.8242 10.0098 34.446 10.0098 35.2012ZM16.8066 28.1016C17.7181 28.1016 18.4993 28.3034 19.1504 28.707C19.8014 29.1107 20.2995 29.6771 20.6445 30.4062C20.9896 31.1289 21.1621 31.9753 21.1621 32.9453V33.9512H13.7695C13.7891 35.2077 14.1016 36.1647 14.707 36.8223C15.3125 37.4798 16.1654 37.8086 17.2656 37.8086C17.9427 37.8086 18.5417 37.7467 19.0625 37.623C19.5833 37.4993 20.1237 37.3171 20.6836 37.0762V38.502C20.1432 38.7428 19.6061 38.9186 19.0723 39.0293C18.5449 39.14 17.9199 39.1953 17.1973 39.1953C16.1686 39.1953 15.2702 38.987 14.502 38.5703C13.7402 38.1471 13.1478 37.5286 12.7246 36.7148C12.3014 35.901 12.0898 34.9049 12.0898 33.7266C12.0898 32.5742 12.2819 31.5781 12.666 30.7383C13.0566 29.8919 13.6035 29.2409 14.3066 28.7852C15.0163 28.3294 15.8496 28.1016 16.8066 28.1016ZM16.7871 29.4297C15.9212 29.4297 15.2311 29.7129 14.7168 30.2793C14.2025 30.8457 13.8965 31.6367 13.7988 32.6523H19.4629C19.4564 32.0143 19.3555 31.4544 19.1602 30.9727C18.9714 30.4844 18.6816 30.1068 18.291 29.8398C17.9004 29.5664 17.3991 29.4297 16.7871 29.4297ZM26.9043 43.8047C25.498 43.8047 24.4141 43.541 23.6523 43.0137C22.8906 42.4928 22.5098 41.7604 22.5098 40.8164C22.5098 40.1458 22.7214 39.5729 23.1445 39.0977C23.5742 38.6224 24.1667 38.3066 24.9219 38.1504C24.6419 38.0202 24.401 37.8249 24.1992 37.5645C24.0039 37.304 23.9062 37.0046 23.9062 36.666C23.9062 36.2754 24.0137 35.9336 24.2285 35.6406C24.4499 35.3411 24.7852 35.0547 25.2344 34.7812C24.6745 34.5534 24.2188 34.1693 23.8672 33.6289C23.5221 33.082 23.3496 32.4473 23.3496 31.7246C23.3496 30.9564 23.5091 30.3021 23.8281 29.7617C24.1471 29.2148 24.6094 28.7982 25.2148 28.5117C25.8203 28.2253 26.5527 28.082 27.4121 28.082C27.6009 28.082 27.7897 28.0918 27.9785 28.1113C28.1738 28.1243 28.3594 28.1471 28.5352 28.1797C28.7109 28.2057 28.8639 28.2383 28.9941 28.2773H32.666V29.3223L30.6934 29.5664C30.8887 29.8203 31.0514 30.1263 31.1816 30.4844C31.3118 30.8424 31.377 31.2396 31.377 31.6758C31.377 32.7435 31.0156 33.5931 30.293 34.2246C29.5703 34.8496 28.5775 35.1621 27.3145 35.1621C27.015 35.1621 26.709 35.1361 26.3965 35.084C26.0775 35.2598 25.8333 35.4551 25.6641 35.6699C25.5013 35.8848 25.4199 36.1322 25.4199 36.4121C25.4199 36.6204 25.4818 36.7865 25.6055 36.9102C25.7357 37.0339 25.9212 37.125 26.1621 37.1836C26.403 37.2357 26.6927 37.2617 27.0312 37.2617H28.916C30.0814 37.2617 30.9733 37.5059 31.5918 37.9941C32.2168 38.4824 32.5293 39.1953 32.5293 40.1328C32.5293 41.3177 32.0475 42.2259 31.084 42.8574C30.1204 43.4889 28.7272 43.8047 26.9043 43.8047ZM26.9531 42.5352C27.8385 42.5352 28.571 42.444 29.1504 42.2617C29.7363 42.0859 30.1725 41.8288 30.459 41.4902C30.752 41.1582 30.8984 40.7611 30.8984 40.2988C30.8984 39.8691 30.8008 39.5436 30.6055 39.3223C30.4102 39.1074 30.1237 38.9642 29.7461 38.8926C29.3685 38.8145 28.9062 38.7754 28.3594 38.7754H26.5039C26.0221 38.7754 25.6022 38.8503 25.2441 39C24.8861 39.1497 24.6094 39.3711 24.4141 39.6641C24.2253 39.957 24.1309 40.3216 24.1309 40.7578C24.1309 41.3372 24.375 41.7767 24.8633 42.0762C25.3516 42.3822 26.0482 42.5352 26.9531 42.5352ZM27.373 33.9805C28.1478 33.9805 28.7305 33.7852 29.1211 33.3945C29.5117 33.0039 29.707 32.4342 29.707 31.6855C29.707 30.8848 29.5085 30.2858 29.1113 29.8887C28.7142 29.485 28.1283 29.2832 27.3535 29.2832C26.6113 29.2832 26.0384 29.4915 25.6348 29.9082C25.2376 30.3184 25.0391 30.9206 25.0391 31.7148C25.0391 32.444 25.2409 33.0039 25.6445 33.3945C26.0482 33.7852 26.6243 33.9805 27.373 33.9805ZM43.6133 28.2969V39H42.2852L42.0508 37.4961H41.9629C41.7415 37.8672 41.4551 38.1797 41.1035 38.4336C40.752 38.6875 40.3548 38.8763 39.9121 39C39.4759 39.1302 39.0104 39.1953 38.5156 39.1953C37.6693 39.1953 36.9596 39.0586 36.3867 38.7852C35.8138 38.5117 35.3809 38.0885 35.0879 37.5156C34.8014 36.9427 34.6582 36.207 34.6582 35.3086V28.2969H36.2988V35.1914C36.2988 36.0833 36.5007 36.7507 36.9043 37.1934C37.3079 37.6296 37.9232 37.8477 38.75 37.8477C39.5443 37.8477 40.1758 37.6979 40.6445 37.3984C41.1198 37.099 41.4616 36.6595 41.6699 36.0801C41.8783 35.4941 41.9824 34.778 41.9824 33.9316V28.2969H43.6133ZM48.6621 28.2969V39H47.041V28.2969H48.6621ZM47.8711 24.293C48.138 24.293 48.3659 24.3809 48.5547 24.5566C48.75 24.7259 48.8477 24.9928 48.8477 25.3574C48.8477 25.7155 48.75 25.9824 48.5547 26.1582C48.3659 26.334 48.138 26.4219 47.8711 26.4219C47.5911 26.4219 47.3568 26.334 47.168 26.1582C46.9857 25.9824 46.8945 25.7155 46.8945 25.3574C46.8945 24.9928 46.9857 24.7259 47.168 24.5566C47.3568 24.3809 47.5911 24.293 47.8711 24.293ZM57.168 28.1016C58.4375 28.1016 59.3978 28.4141 60.0488 29.0391C60.6999 29.6576 61.0254 30.6536 61.0254 32.0273V39H59.4238V32.1348C59.4238 31.2428 59.2188 30.5755 58.8086 30.1328C58.4049 29.6901 57.7832 29.4688 56.9434 29.4688C55.7585 29.4688 54.9251 29.804 54.4434 30.4746C53.9616 31.1452 53.7207 32.1185 53.7207 33.3945V39H52.0996V28.2969H53.4082L53.6523 29.8398H53.7402C53.9681 29.4622 54.2578 29.1465 54.6094 28.8926C54.9609 28.6322 55.3548 28.4368 55.791 28.3066C56.2272 28.1699 56.6862 28.1016 57.168 28.1016ZM73.5938 33.6289C73.5938 34.5078 73.4798 35.2923 73.252 35.9824C73.0241 36.6725 72.6953 37.2552 72.2656 37.7305C71.8359 38.2057 71.3151 38.5703 70.7031 38.8242C70.0977 39.0716 69.4108 39.1953 68.6426 39.1953C67.9264 39.1953 67.2689 39.0716 66.6699 38.8242C66.0775 38.5703 65.5632 38.2057 65.127 37.7305C64.6973 37.2552 64.362 36.6725 64.1211 35.9824C63.8867 35.2923 63.7695 34.5078 63.7695 33.6289C63.7695 32.457 63.9681 31.4609 64.3652 30.6406C64.7624 29.8138 65.3288 29.1855 66.0645 28.7559C66.8066 28.3197 67.6888 28.1016 68.7109 28.1016C69.6875 28.1016 70.5404 28.3197 71.2695 28.7559C72.0052 29.1921 72.5749 29.8236 72.9785 30.6504C73.3887 31.4707 73.5938 32.4635 73.5938 33.6289ZM65.4492 33.6289C65.4492 34.4883 65.5632 35.2337 65.791 35.8652C66.0189 36.4967 66.3704 36.985 66.8457 37.3301C67.321 37.6751 67.9329 37.8477 68.6816 37.8477C69.4238 37.8477 70.0326 37.6751 70.5078 37.3301C70.9896 36.985 71.3444 36.4967 71.5723 35.8652C71.8001 35.2337 71.9141 34.4883 71.9141 33.6289C71.9141 32.776 71.8001 32.0404 71.5723 31.4219C71.3444 30.7969 70.9928 30.3151 70.5176 29.9766C70.0423 29.638 69.4271 29.4688 68.6719 29.4688C67.5586 29.4688 66.7415 29.8366 66.2207 30.5723C65.7064 31.3079 65.4492 32.3268 65.4492 33.6289ZM83.3203 36.0703C83.3203 36.7539 83.1478 37.3301 82.8027 37.7988C82.4642 38.2611 81.9759 38.6094 81.3379 38.8438C80.7064 39.0781 79.9512 39.1953 79.0723 39.1953C78.3236 39.1953 77.6758 39.1367 77.1289 39.0195C76.582 38.9023 76.1035 38.7363 75.6934 38.5215V37.0273C76.1296 37.2422 76.6504 37.4375 77.2559 37.6133C77.8613 37.7891 78.4798 37.877 79.1113 37.877C80.0358 37.877 80.7064 37.7272 81.123 37.4277C81.5397 37.1283 81.748 36.7214 81.748 36.207C81.748 35.9141 81.6634 35.6569 81.4941 35.4355C81.3314 35.2077 81.0547 34.9896 80.6641 34.7812C80.2734 34.5664 79.7331 34.332 79.043 34.0781C78.3594 33.8177 77.7669 33.5605 77.2656 33.3066C76.7708 33.0462 76.3867 32.7305 76.1133 32.3594C75.8464 31.9883 75.7129 31.5065 75.7129 30.9141C75.7129 30.0091 76.0775 29.3158 76.8066 28.834C77.5423 28.3457 78.5059 28.1016 79.6973 28.1016C80.3418 28.1016 80.944 28.1667 81.5039 28.2969C82.0703 28.4206 82.5977 28.5898 83.0859 28.8047L82.5391 30.1035C82.0964 29.9147 81.6243 29.7552 81.123 29.625C80.6217 29.4948 80.1107 29.4297 79.5898 29.4297C78.8411 29.4297 78.265 29.5534 77.8613 29.8008C77.4642 30.0482 77.2656 30.3867 77.2656 30.8164C77.2656 31.1484 77.3568 31.4219 77.5391 31.6367C77.7279 31.8516 78.0273 32.0534 78.4375 32.2422C78.8477 32.431 79.388 32.6523 80.0586 32.9062C80.7292 33.1536 81.3086 33.4108 81.7969 33.6777C82.2852 33.9382 82.6595 34.2572 82.9199 34.6348C83.1868 35.0059 83.3203 35.4844 83.3203 36.0703Z" fill="white"/>
<path d="M109.25 33.3438C110.544 33.3438 111.594 32.2944 111.594 31C111.594 29.7056 110.544 28.6562 109.25 28.6562C107.956 28.6562 106.906 29.7056 106.906 31C106.906 32.2944 107.956 33.3438 109.25 33.3438Z" stroke="white" stroke-width="1.5625" stroke-linecap="round" stroke-linejoin="round"/>
<path d="M121.75 26.3125C123.044 26.3125 124.094 25.2632 124.094 23.9688C124.094 22.6743 123.044 21.625 121.75 21.625C120.456 21.625 119.406 22.6743 119.406 23.9688C119.406 25.2632 120.456 26.3125 121.75 26.3125Z" stroke="white" stroke-width="1.5625" stroke-linecap="round" stroke-linejoin="round"/>
<path d="M121.75 40.375C123.044 40.375 124.094 39.3257 124.094 38.0312C124.094 36.7368 123.044 35.6875 121.75 35.6875C120.456 35.6875 119.406 36.7368 119.406 38.0312C119.406 39.3257 120.456 40.375 121.75 40.375Z" stroke="white" stroke-width="1.5625" stroke-linecap="round" stroke-linejoin="round"/>
<path d="M111.293 32.1494L119.708 36.8828M119.708 25.1182L111.293 29.8516" stroke="white" stroke-width="1.5625" stroke-linecap="round" stroke-linejoin="round"/>
</svg>
