<svg width="413" height="29" viewBox="0 0 413 29" fill="none" xmlns="http://www.w3.org/2000/svg">
<path fill-rule="evenodd" clip-rule="evenodd" d="M22.3332 3.37598H0.859375V24.7292H22.3332V3.37598ZM18.9685 6.75491H4.25045V21.3523H18.9685V6.75491Z" fill="#EB5500"/>
<path fill-rule="evenodd" clip-rule="evenodd" d="M83.2584 4.25467C82.5713 4.56375 81.9225 4.94275 81.321 5.38262L96.3729 20.4346C96.8128 19.8331 97.1918 19.1843 97.5009 18.4972L83.2584 4.25467ZM98.4401 13.7883C98.2867 8.07347 93.6821 3.46887 87.9673 3.31543L98.4401 13.7883ZM77.6035 10.2493C77.8655 9.56169 78.1958 8.90784 78.5863 8.29605L93.4595 23.1693C92.8477 23.5598 92.1939 23.8901 91.5063 24.152L77.6035 10.2493ZM86.4968 24.7908L76.9648 15.2588C77.5088 20.2682 81.4874 24.2468 86.4968 24.7908Z" fill="#EB5500"/>
<path fill-rule="evenodd" clip-rule="evenodd" d="M153.086 18.6601C161.47 18.6601 168.267 11.8633 168.267 3.47892C168.267 3.47716 168.267 3.47539 168.267 3.47363H174.228C174.228 6.25215 173.681 9.00346 172.618 11.5705C171.555 14.1375 169.996 16.4699 168.031 18.4347C166.067 20.3994 163.734 21.9579 161.167 23.0212C158.6 24.0844 155.849 24.6317 153.07 24.6317V18.6601C153.076 18.6601 153.081 18.6601 153.086 18.6601Z" fill="#EB5500"/>
<path fill-rule="evenodd" clip-rule="evenodd" d="M228.863 4.10333L228.863 7.1211L245.629 7.1211L245.629 24.002L248.647 24.002L248.647 4.21882L248.646 4.21882L248.646 4.10333L228.863 4.10333Z" fill="#EB5500"/>
<path fill-rule="evenodd" clip-rule="evenodd" d="M331.184 18.2201C331.477 17.4442 331.687 16.6437 331.812 15.8329L308.294 15.8329C308.42 16.6437 308.629 17.4441 308.922 18.2201L331.184 18.2201ZM311.858 22.6321C316.446 26.995 323.661 26.995 328.249 22.6321L311.858 22.6321ZM330.91 9.12746C331.243 9.86912 331.497 10.6379 331.67 11.4208L308.436 11.4208C308.61 10.6379 308.863 9.8691 309.196 9.12744L330.91 9.12746ZM312.616 4.71538L327.491 4.71539C323.156 1.23599 316.95 1.23598 312.616 4.71538Z" fill="#EB5500"/>
<path fill-rule="evenodd" clip-rule="evenodd" d="M412.935 3.37598H391.461V24.7292H412.935V3.37598ZM409.57 6.75491H394.852V21.3523H409.57V6.75491Z" fill="#EB5500"/>
</svg>
