<svg width="756" height="194" viewBox="0 0 756 194" fill="none" xmlns="http://www.w3.org/2000/svg">
<path fill-rule="evenodd" clip-rule="evenodd" d="M39.5686 0.845703H0.339844V39.8513H39.5686V0.845703ZM33.4224 7.0158H6.53386V33.6812H33.4224V7.0158Z" fill="#0B0B0B"/>
<path fill-rule="evenodd" clip-rule="evenodd" d="M152.432 2.96149C151.181 3.51951 150.001 4.20507 148.901 5.01021L176.267 32.2974C177.065 31.2052 177.758 30.0254 178.316 28.7818L152.432 2.96149ZM180.022 20.2282C179.727 9.8889 171.373 1.55847 161.002 1.27148L180.022 20.2282ZM142.141 13.8269C142.619 12.5833 143.217 11.3956 143.934 10.2875L170.982 37.2558C169.866 37.9653 168.678 38.5631 167.427 39.0414L142.141 13.8349V13.8269ZM158.323 40.1973L140.969 22.8987C141.949 31.9944 149.196 39.2168 158.323 40.1973Z" fill="#0B0B0B"/>
<path fill-rule="evenodd" clip-rule="evenodd" d="M279.676 29.1597V40.2642C284.881 40.2642 290.031 39.2518 294.838 37.2749C299.645 35.3058 304.014 32.4121 307.689 28.769C311.363 25.126 314.281 20.7973 316.274 16.0382C318.267 11.2791 319.287 6.17723 319.287 1.01953H308.127C308.119 16.5644 295.396 29.1597 279.7 29.1597H279.668H279.676Z" fill="#0B0B0B"/>
<path fill-rule="evenodd" clip-rule="evenodd" d="M282.617 151.197V162.301C287.823 162.301 292.973 161.289 297.78 159.312C302.586 157.343 306.955 154.449 310.63 150.806C314.305 147.163 317.223 142.834 319.215 138.075C321.208 133.316 322.229 128.214 322.229 123.057H311.068C311.06 138.601 298.338 151.197 282.641 151.197H282.609H282.617Z" fill="#0B0B0B"/>
<path fill-rule="evenodd" clip-rule="evenodd" d="M419.094 1.24805V7.16305H449.721V40.2456H455.237V1.47125V1.25602H419.102L419.094 1.24805Z" fill="#0B0B0B"/>
<path fill-rule="evenodd" clip-rule="evenodd" d="M419.094 110.678V116.593H449.721V149.675H455.237V110.893V110.678H419.102H419.094Z" fill="#0B0B0B"/>
<path opacity="0.18" fill-rule="evenodd" clip-rule="evenodd" d="M448.718 149.687V143.772H418.091V110.689H412.574V149.472V149.687H448.71H448.718Z" fill="#0B0B0B"/>
<path fill-rule="evenodd" clip-rule="evenodd" d="M602.506 27.6419C602.993 26.3744 603.335 25.0591 603.543 23.7358H564.633C564.84 25.067 565.183 26.3744 565.669 27.6419H602.506ZM570.524 34.8643C578.121 42.0228 590.071 42.0228 597.668 34.8643H570.524ZM602.052 12.7747C602.602 13.9864 603.017 15.2379 603.304 16.5134H564.872C565.159 15.2379 565.573 13.9864 566.124 12.7747H602.052ZM571.775 5.55229H596.4C589.226 -0.155451 578.95 -0.155451 571.775 5.55229Z" fill="#0B0B0B"/>
<path fill-rule="evenodd" clip-rule="evenodd" d="M755.17 1.24805H715.941V40.2536H755.17V1.24805ZM749.024 7.41815H722.135V34.0835H749.024V7.41815Z" fill="#0B0B0B"/>
<path d="M39.5686 61.3672H0.339844V100.373H39.5686V61.3672Z" fill="#0B0B0B"/>
<path d="M755.17 61.6191H715.941V100.625H755.17V61.6191Z" fill="#0B0B0B"/>
<path d="M36.7658 121.891H3.89844V154.351H36.7658V121.891Z" stroke="#0B0B0B" stroke-width="6.37737" stroke-miterlimit="10"/>
<path d="M752.369 121.986H719.502V154.447H752.369V121.986Z" stroke="#0B0B0B" stroke-width="6.37737" stroke-miterlimit="10"/>
<path d="M160.539 100.694C171.348 100.694 180.11 91.9318 180.11 81.1233C180.11 70.3148 171.348 61.5527 160.539 61.5527C149.731 61.5527 140.969 70.3148 140.969 81.1233C140.969 91.9318 149.731 100.694 160.539 100.694Z" fill="#0B0B0B"/>
<path d="M584.203 100.731C595.012 100.731 603.774 91.9689 603.774 81.1604C603.774 70.3519 595.012 61.5898 584.203 61.5898C573.395 61.5898 564.633 70.3519 564.633 81.1604C564.633 91.9689 573.395 100.731 584.203 100.731Z" fill="#0B0B0B"/>
<path d="M160.539 161.202C171.348 161.202 180.11 152.44 180.11 141.631C180.11 130.823 171.348 122.061 160.539 122.061C149.731 122.061 140.969 130.823 140.969 141.631C140.969 152.44 149.731 161.202 160.539 161.202Z" fill="#0B0B0B"/>
<path d="M171.097 162.564L138.984 130.451L133.849 135.586L165.962 167.699L171.097 162.564Z" fill="#686666"/>
<path d="M178.747 154.7L146.859 122.812L141.724 127.948L173.612 159.835L178.747 154.7Z" fill="#686666"/>
<path d="M186.021 146.24L154.551 114.77L149.416 119.905L180.886 151.375L186.021 146.24Z" fill="#686666"/>
<path d="M582.422 161.237C593.231 161.237 601.993 152.475 601.993 141.666C601.993 130.858 593.231 122.096 582.422 122.096C571.614 122.096 562.852 130.858 562.852 141.666C562.852 152.475 571.614 161.237 582.422 161.237Z" fill="#0B0B0B"/>
<path d="M604.778 149.322H559.363V156.584H604.778V149.322Z" fill="#686666"/>
<path d="M604.627 138.354H559.531V145.616H604.627V138.354Z" fill="#686666"/>
<path d="M603.799 127.23H559.293V134.493H603.799V127.23Z" fill="#686666"/>
<path d="M282.684 151.348C298.353 151.348 311.055 138.646 311.055 122.977C311.055 107.308 298.353 94.6055 282.684 94.6055C267.015 94.6055 254.312 107.308 254.312 122.977C254.312 138.646 267.015 151.348 282.684 151.348Z" stroke="#0B0B0B" stroke-width="0.797171" stroke-miterlimit="10" stroke-dasharray="1.59 1.59"/>
<path d="M282.617 89.7949V183.957" stroke="#0B0B0B" stroke-width="0.797171" stroke-miterlimit="10" stroke-dasharray="1.59 1.59"/>
<path d="M110.707 120.111L177.289 186.694" stroke="#0B0B0B" stroke-width="0.797171" stroke-miterlimit="10" stroke-dasharray="1.59 1.59"/>
<path d="M142.746 95.1934L209.329 161.776" stroke="#0B0B0B" stroke-width="0.797171" stroke-miterlimit="10" stroke-dasharray="1.59 1.59"/>
<path d="M344.521 122.98H248.621" stroke="#0B0B0B" stroke-width="0.797171" stroke-miterlimit="10" stroke-dasharray="1.59 1.59"/>
<path d="M343.673 162.838H247.773" stroke="#0B0B0B" stroke-width="0.797171" stroke-miterlimit="10" stroke-dasharray="1.59 1.59"/>
<path d="M322.539 193.095L322.539 77.3887" stroke="#0B0B0B" stroke-width="0.797171" stroke-miterlimit="10" stroke-dasharray="1.59 1.59"/>
<path opacity="0.12" fill-rule="evenodd" clip-rule="evenodd" d="M280.264 92.0538V80.9492C275.058 80.9492 269.909 81.9616 265.102 83.9386C260.295 85.9076 255.926 88.8013 252.251 92.4444C248.576 96.0875 245.659 100.416 243.666 105.175C241.673 109.934 240.652 115.036 240.652 120.194H251.813C251.821 104.649 264.544 92.0538 280.24 92.0538H280.272H280.264Z" fill="#0B0B0B"/>
<path opacity="0.12" fill-rule="evenodd" clip-rule="evenodd" d="M313.296 120.561H324.401C324.401 115.355 323.389 110.205 321.412 105.398C319.443 100.592 316.549 96.223 312.906 92.5481C309.263 88.8731 304.934 85.9555 300.175 83.9625C295.416 81.9696 290.314 80.9492 285.156 80.9492V92.1096C300.701 92.1176 313.296 104.84 313.296 120.537V120.569V120.561Z" fill="#0B0B0B"/>
<path opacity="0.12" fill-rule="evenodd" clip-rule="evenodd" d="M251.757 123.68H240.652C240.652 128.885 241.665 134.035 243.642 138.842C245.611 143.649 248.504 148.017 252.148 151.692C255.791 155.367 260.119 158.285 264.878 160.278C269.637 162.271 274.739 163.291 279.897 163.291V152.131C264.352 152.123 251.757 139.4 251.757 123.704V123.672V123.68Z" fill="#0B0B0B"/>
<path d="M419.094 83.9863V143.32" stroke="#0B0B0B" stroke-width="0.797171" stroke-miterlimit="10" stroke-dasharray="1.59 1.59"/>
<path d="M459.716 110.279H400.383" stroke="#0B0B0B" stroke-width="0.797171" stroke-miterlimit="10" stroke-dasharray="1.59 1.59"/>
<path d="M460.314 150.084H400.98" stroke="#0B0B0B" stroke-width="0.797171" stroke-miterlimit="10" stroke-dasharray="1.59 1.59"/>
<path d="M448.715 116.965V176.298" stroke="#0B0B0B" stroke-width="0.797171" stroke-miterlimit="10" stroke-dasharray="1.59 1.59"/>
<path d="M105.707 139.378H107.274V141.258H105.707V143.451H103.827V141.258H96.9348L105.707 129.979V139.378ZM103.827 139.378V135.031L100.655 139.378H103.827ZM114.585 134.679C116.72 134.679 118.873 136.206 118.873 139.006C118.873 141.728 116.68 143.608 114.174 143.608C111.57 143.608 109.631 141.767 109.475 139.535L111.433 139.339C111.55 140.553 112.627 141.728 114.174 141.728C115.682 141.728 116.994 140.573 116.994 139.065C116.994 137.596 115.956 136.559 114.468 136.559C113.449 136.559 112.275 137.087 111.687 138.125H109.768L110.943 130.293H117.62V132.172H112.549L112.04 135.54C112.705 134.992 113.743 134.679 114.585 134.679ZM123.902 135.775C122.316 135.775 121.063 134.542 121.063 132.956C121.063 131.389 122.316 130.136 123.902 130.136C125.468 130.136 126.702 131.389 126.702 132.956C126.702 134.542 125.468 135.775 123.902 135.775ZM123.882 134.522C124.724 134.522 125.449 133.798 125.449 132.956C125.449 132.114 124.724 131.389 123.882 131.389C123.04 131.389 122.316 132.114 122.316 132.956C122.316 133.798 123.04 134.522 123.882 134.522Z" fill="#0B0B0B"/>
<path d="M536.152 161.055L630.314 161.055" stroke="#0B0B0B" stroke-width="0.797171" stroke-miterlimit="10" stroke-dasharray="1.59 1.59"/>
<path d="M536.152 121.891L630.314 121.891" stroke="#0B0B0B" stroke-width="0.797171" stroke-miterlimit="10" stroke-dasharray="1.59 1.59"/>
</svg>
