<svg width="46" height="45" viewBox="0 0 46 45" fill="none" xmlns="http://www.w3.org/2000/svg">
<path d="M32.6545 44.2198H32.6537C15.3067 44.2198 1.1924 30.1055 1.1924 12.7585L1.1924 12.7576C1.18718 9.84563 2.24215 7.03131 4.16027 4.8403C6.07786 2.64988 8.72703 1.23219 11.6132 0.851814C12.2659 0.772609 12.9268 0.906363 13.4974 1.23319C14.0686 1.56039 14.5187 2.06356 14.7804 2.66758L14.7804 2.6676L14.7829 2.67317L19.4269 13.0407V13.0642L19.4681 13.1593C19.6685 13.6217 19.7513 14.1265 19.709 14.6287C19.6668 15.1299 19.5014 15.6128 19.2275 16.0346C19.1999 16.0759 19.169 16.1169 19.1319 16.1634L14.5152 21.6361L14.3044 21.8859L14.4488 22.1792C16.1609 25.6584 19.7759 29.2406 23.2969 30.9554L23.5909 31.0986L23.8399 30.8867L29.2399 26.292C29.2403 26.2917 29.2407 26.2914 29.241 26.291C29.279 26.2592 29.3188 26.2295 29.3602 26.2022L29.3621 26.2009C29.7841 25.9194 30.2696 25.7476 30.7748 25.701C31.2776 25.6546 31.7841 25.7337 32.2488 25.9313L32.271 25.9415L32.2709 25.9415L32.2761 25.9438L42.7323 30.6292L42.7323 30.6293L42.7388 30.6321C43.3439 30.8929 43.8483 31.3426 44.1766 31.9139C44.5044 32.4845 44.639 33.1458 44.5603 33.7991C44.1799 36.6852 42.7623 39.3343 40.5719 41.2519C38.3809 43.17 35.5665 44.225 32.6545 44.2198Z" stroke="white"/>
</svg>
