<svg width="272" height="104" viewBox="0 0 272 104" fill="none" xmlns="http://www.w3.org/2000/svg">
<path d="M146.655 49.2198H146.654C129.307 49.2198 115.192 35.1055 115.192 17.7585L115.192 17.7576C115.187 14.8456 116.242 12.0313 118.16 9.8403C120.078 7.64988 122.727 6.23219 125.613 5.85181C126.266 5.77261 126.927 5.90636 127.497 6.23319C128.069 6.56039 128.519 7.06356 128.78 7.66758L128.78 7.6676L128.783 7.67317L133.427 18.0407V18.0642L133.468 18.1593C133.669 18.6217 133.751 19.1265 133.709 19.6287C133.667 20.1299 133.501 20.6128 133.227 21.0346C133.2 21.0759 133.169 21.1169 133.132 21.1634L128.515 26.6361L128.304 26.8859L128.449 27.1792C130.161 30.6584 133.776 34.2406 137.297 35.9554L137.591 36.0986L137.84 35.8867L143.24 31.292C143.24 31.2917 143.241 31.2914 143.241 31.291C143.279 31.2592 143.319 31.2295 143.36 31.2022L143.362 31.2009C143.784 30.9194 144.27 30.7476 144.775 30.701C145.278 30.6546 145.784 30.7337 146.249 30.9313L146.271 30.9415L146.271 30.9415L146.276 30.9438L156.732 35.6292L156.732 35.6293L156.739 35.6321C157.344 35.8929 157.848 36.3426 158.177 36.9139C158.504 37.4845 158.639 38.1458 158.56 38.7991C158.18 41.6852 156.762 44.3343 154.572 46.2519C152.381 48.17 149.567 49.225 146.655 49.2198Z" stroke="white"/>
<path d="M10.5771 67.307C10.5771 67.9807 10.441 68.566 10.1688 69.0628C9.89655 69.5597 9.52224 69.968 9.04584 70.2879C8.57624 70.6009 8.03178 70.8255 7.41246 70.9616V71.0331C8.60347 71.1828 9.50182 71.5571 10.1075 72.156C10.72 72.755 11.0263 73.5478 11.0263 74.5347C11.0263 75.399 10.8187 76.1714 10.4036 76.852C9.98843 77.5258 9.3521 78.0566 8.49457 78.4445C7.63705 78.8325 6.53452 79.0264 5.18699 79.0264C4.3771 79.0264 3.62507 78.9618 2.93089 78.8325C2.24351 78.7032 1.59016 78.4956 0.970835 78.2097V76.0762C1.60377 76.3892 2.27754 76.6308 2.99214 76.801C3.70674 76.9711 4.38391 77.0562 5.02365 77.0562C6.2691 77.0562 7.15725 76.8248 7.68809 76.362C8.21894 75.8924 8.48437 75.2459 8.48437 74.4224C8.48437 73.8915 8.34485 73.4559 8.06581 73.1157C7.79358 72.7754 7.36822 72.5202 6.78974 72.35C6.21806 72.1799 5.47963 72.0948 4.57447 72.0948H3.25756V70.1654H4.58468C5.44901 70.1654 6.14319 70.0633 6.66723 69.8591C7.19128 69.6481 7.56899 69.3589 7.80039 68.9914C8.03859 68.6239 8.15769 68.1951 8.15769 67.7051C8.15769 67.0654 7.95012 66.5685 7.53497 66.2146C7.11982 65.8539 6.5039 65.6736 5.68721 65.6736C5.18358 65.6736 4.7242 65.7314 4.30905 65.8471C3.9007 65.9628 3.52299 66.1092 3.17589 66.2861C2.8288 66.4631 2.49872 66.6536 2.18566 66.8578L1.03209 65.1938C1.59696 64.7718 2.27073 64.4145 3.05339 64.1219C3.83605 63.8292 4.74802 63.6829 5.78929 63.6829C7.32058 63.6829 8.50138 64.013 9.33168 64.6731C10.162 65.3265 10.5771 66.2044 10.5771 67.307ZM23.6543 75.5453H21.633V78.8223H19.2646V75.5453H12.4759V73.7282L19.2953 63.8565H21.633V73.5546H23.6543V75.5453ZM19.2646 73.5546V69.8489C19.2646 69.5426 19.2681 69.233 19.2749 68.9199C19.2885 68.6001 19.3021 68.2938 19.3157 68.0011C19.3293 67.7085 19.3429 67.4397 19.3565 67.1947C19.3701 66.9429 19.3803 66.7353 19.3872 66.5719H19.3055C19.1762 66.8442 19.0333 67.1232 18.8767 67.409C18.7202 67.6881 18.5534 67.9603 18.3765 68.2257L14.7014 73.5546H19.2646ZM30.0041 63.6931C30.8684 63.6931 31.6477 63.8292 32.3419 64.1015C33.0361 64.3669 33.5873 64.765 33.9957 65.2959C34.404 65.8267 34.6082 66.4835 34.6082 67.2661C34.6082 67.8718 34.4823 68.3993 34.2305 68.8485C33.9855 69.2976 33.652 69.6924 33.23 70.0327C32.8081 70.3661 32.3351 70.6622 31.811 70.9208C32.3963 71.2066 32.934 71.5367 33.424 71.911C33.9208 72.2786 34.3189 72.7107 34.6184 73.2075C34.9246 73.7044 35.0778 74.2862 35.0778 74.9532C35.0778 75.7903 34.8634 76.5151 34.4346 77.1276C34.0127 77.7333 33.424 78.2029 32.6685 78.5364C31.9131 78.8631 31.0318 79.0264 30.0245 79.0264C28.9424 79.0264 28.0202 78.8665 27.258 78.5466C26.4957 78.2268 25.9173 77.7708 25.5225 77.1787C25.1278 76.5798 24.9304 75.8652 24.9304 75.0349C24.9304 74.3475 25.0665 73.752 25.3388 73.2484C25.611 72.7447 25.9751 72.3092 26.4311 71.9417C26.8939 71.5742 27.4009 71.2645 27.9522 71.0127C27.4826 70.7337 27.0538 70.4206 26.6659 70.0735C26.278 69.7196 25.9683 69.3147 25.7369 68.8587C25.5123 68.3959 25.4 67.8616 25.4 67.2559C25.4 66.4801 25.6076 65.8301 26.0227 65.3061C26.4379 64.7752 26.9926 64.3737 27.6867 64.1015C28.3877 63.8292 29.1602 63.6931 30.0041 63.6931ZM27.2171 74.943C27.2171 75.5963 27.4485 76.134 27.9113 76.556C28.3741 76.9779 29.0649 77.1889 29.9837 77.1889C30.8956 77.1889 31.5898 76.9813 32.0662 76.5662C32.5426 76.151 32.7808 75.6032 32.7808 74.9226C32.7808 74.487 32.6583 74.1025 32.4133 73.769C32.1751 73.4355 31.8519 73.1395 31.4435 72.8809C31.042 72.6154 30.5962 72.3704 30.1062 72.1458L29.7795 72.0131C29.2487 72.2377 28.7927 72.4929 28.4116 72.7788C28.0304 73.0578 27.7344 73.3743 27.5234 73.7282C27.3192 74.0821 27.2171 74.487 27.2171 74.943ZM29.9837 65.5409C29.3235 65.5409 28.7791 65.7042 28.3503 66.0309C27.9283 66.3508 27.7174 66.8135 27.7174 67.4193C27.7174 67.848 27.8195 68.2155 28.0236 68.5218C28.2346 68.828 28.517 69.0935 28.8709 69.3181C29.2248 69.5358 29.6162 69.74 30.0449 69.9306C30.4601 69.7468 30.8344 69.5461 31.1679 69.3283C31.5082 69.1037 31.777 68.8383 31.9744 68.532C32.1785 68.2189 32.2806 67.8446 32.2806 67.409C32.2806 66.8101 32.0662 66.3508 31.6375 66.0309C31.2155 65.7042 30.6643 65.5409 29.9837 65.5409ZM38.6406 78.8223L44.5003 66.0003H36.752V63.8973H47.0831V65.5409L41.2233 78.8223H38.6406ZM48.696 74.2284V72.1969H53.9637V74.2284H48.696ZM57.3427 78.8223L63.2025 66.0003H55.4541V63.8973H65.7852V65.5409L59.9255 78.8223H57.3427ZM77.7089 78.8223H67.6024V77.0153L71.4714 73.0952C72.2201 72.333 72.836 71.6762 73.3192 71.125C73.8024 70.5669 74.1597 70.0395 74.3911 69.5426C74.6293 69.0458 74.7484 68.5048 74.7484 67.9195C74.7484 67.1981 74.5408 66.6536 74.1257 66.2861C73.7105 65.9118 73.1627 65.7246 72.4821 65.7246C71.8355 65.7246 71.2366 65.8539 70.6854 66.1126C70.1409 66.3644 69.576 66.7251 68.9907 67.1947L67.6738 65.6123C68.089 65.2584 68.5314 64.9352 69.001 64.6425C69.4774 64.3499 70.0082 64.1185 70.5935 63.9483C71.1788 63.7714 71.8458 63.6829 72.5944 63.6829C73.5404 63.6829 74.3571 63.8531 75.0444 64.1933C75.7318 64.5268 76.2593 64.993 76.6268 65.5919C77.0011 66.1908 77.1883 66.8884 77.1883 67.6847C77.1883 68.4878 77.0283 69.2296 76.7084 69.9102C76.3886 70.5907 75.9326 71.2645 75.3405 71.9315C74.7484 72.5916 74.044 73.3096 73.2273 74.0855L70.6445 76.607V76.7193H77.7089V78.8223ZM89.653 70.2572C89.653 71.142 89.5883 72.0097 89.459 72.8604C89.3365 73.7112 89.1187 74.5074 88.8056 75.2493C88.4994 75.9911 88.074 76.6478 87.5296 77.2195C86.9919 77.7844 86.3113 78.2268 85.4878 78.5466C84.6643 78.8665 83.6707 79.0264 82.5069 79.0264C82.2143 79.0264 81.874 79.0094 81.4861 78.9754C81.1049 78.9482 80.7919 78.9073 80.5469 78.8529V76.852C80.8055 76.9269 81.0947 76.9881 81.4146 77.0358C81.7413 77.0766 82.0646 77.097 82.3844 77.097C83.6435 77.097 84.6235 76.8622 85.3245 76.3926C86.0323 75.923 86.5325 75.2765 86.8252 74.453C87.1246 73.6295 87.2948 72.6937 87.3356 71.6456H87.2131C87.0157 71.9723 86.7673 72.2717 86.4679 72.544C86.1684 72.8094 85.7975 73.0238 85.3551 73.1871C84.9128 73.3436 84.3751 73.4219 83.7422 73.4219C82.8846 73.4219 82.136 73.2416 81.4963 72.8809C80.8633 72.5202 80.3699 71.9961 80.016 71.3087C79.6689 70.6146 79.4954 69.7808 79.4954 68.8076C79.4954 67.7527 79.6962 66.8442 80.0977 66.0819C80.4992 65.3197 81.0675 64.7344 81.8025 64.3261C82.5376 63.9109 83.4019 63.7033 84.3955 63.7033C85.1442 63.7033 85.8349 63.8394 86.4679 64.1117C87.1076 64.3771 87.6657 64.7854 88.1421 65.3367C88.6185 65.8812 88.9894 66.5651 89.2548 67.3886C89.5202 68.2053 89.653 69.1615 89.653 70.2572ZM84.4261 65.6838C83.6707 65.6838 83.0548 65.939 82.5784 66.4494C82.102 66.9531 81.8638 67.7289 81.8638 68.777C81.8638 69.6277 82.068 70.3015 82.4763 70.7983C82.8846 71.2951 83.5108 71.5435 84.3547 71.5435C84.94 71.5435 85.4436 71.4244 85.8656 71.1862C86.2943 70.9412 86.6244 70.6316 86.8558 70.2572C87.094 69.8829 87.2131 69.5018 87.2131 69.1139C87.2131 68.7123 87.1552 68.3108 87.0395 67.9093C86.9307 67.5077 86.7605 67.1402 86.5291 66.8067C86.2977 66.4733 86.0051 66.2044 85.6512 66.0003C85.3041 65.7893 84.8957 65.6838 84.4261 65.6838ZM102.179 75.5453H100.158V78.8223H97.7892V75.5453H91.0005V73.7282L97.8198 63.8565H100.158V73.5546H102.179V75.5453ZM97.7892 73.5546V69.8489C97.7892 69.5426 97.7926 69.233 97.7994 68.9199C97.813 68.6001 97.8266 68.2938 97.8402 68.0011C97.8539 67.7085 97.8675 67.4397 97.8811 67.1947C97.8947 66.9429 97.9049 66.7353 97.9117 66.5719H97.83C97.7007 66.8442 97.5578 67.1232 97.4013 67.409C97.2447 67.6881 97.078 67.9603 96.9011 68.2257L93.226 73.5546H97.7892ZM113.582 70.2572C113.582 71.142 113.517 72.0097 113.388 72.8604C113.265 73.7112 113.048 74.5074 112.735 75.2493C112.428 75.9911 112.003 76.6478 111.459 77.2195C110.921 77.7844 110.24 78.2268 109.417 78.5466C108.593 78.8665 107.6 79.0264 106.436 79.0264C106.143 79.0264 105.803 79.0094 105.415 78.9754C105.034 78.9482 104.721 78.9073 104.476 78.8529V76.852C104.734 76.9269 105.024 76.9881 105.344 77.0358C105.67 77.0766 105.994 77.097 106.313 77.097C107.572 77.097 108.552 76.8622 109.253 76.3926C109.961 75.923 110.461 75.2765 110.754 74.453C111.054 73.6295 111.224 72.6937 111.265 71.6456H111.142C110.945 71.9723 110.696 72.2717 110.397 72.544C110.097 72.8094 109.726 73.0238 109.284 73.1871C108.842 73.3436 108.304 73.4219 107.671 73.4219C106.814 73.4219 106.065 73.2416 105.425 72.8809C104.792 72.5202 104.299 71.9961 103.945 71.3087C103.598 70.6146 103.424 69.7808 103.424 68.8076C103.424 67.7527 103.625 66.8442 104.027 66.0819C104.428 65.3197 104.996 64.7344 105.732 64.3261C106.467 63.9109 107.331 63.7033 108.324 63.7033C109.073 63.7033 109.764 63.8394 110.397 64.1117C111.037 64.3771 111.595 64.7854 112.071 65.3367C112.547 65.8812 112.918 66.5651 113.184 67.3886C113.449 68.2053 113.582 69.1615 113.582 70.2572ZM108.355 65.6838C107.6 65.6838 106.984 65.939 106.507 66.4494C106.031 66.9531 105.793 67.7289 105.793 68.777C105.793 69.6277 105.997 70.3015 106.405 70.7983C106.814 71.2951 107.44 71.5435 108.284 71.5435C108.869 71.5435 109.373 71.4244 109.795 71.1862C110.223 70.9412 110.553 70.6316 110.785 70.2572C111.023 69.8829 111.142 69.5018 111.142 69.1139C111.142 68.7123 111.084 68.3108 110.969 67.9093C110.86 67.5077 110.689 67.1402 110.458 66.8067C110.227 66.4733 109.934 66.2044 109.58 66.0003C109.233 65.7893 108.825 65.6838 108.355 65.6838ZM125.567 78.8223H115.46V77.0153L119.329 73.0952C120.078 72.333 120.694 71.6762 121.177 71.125C121.66 70.5669 122.018 70.0395 122.249 69.5426C122.487 69.0458 122.606 68.5048 122.606 67.9195C122.606 67.1981 122.399 66.6536 121.984 66.2861C121.568 65.9118 121.021 65.7246 120.34 65.7246C119.693 65.7246 119.095 65.8539 118.543 66.1126C117.999 66.3644 117.434 66.7251 116.849 67.1947L115.532 65.6123C115.947 65.2584 116.389 64.9352 116.859 64.6425C117.335 64.3499 117.866 64.1185 118.451 63.9483C119.037 63.7714 119.704 63.6829 120.452 63.6829C121.398 63.6829 122.215 63.8531 122.902 64.1933C123.59 64.5268 124.117 64.993 124.485 65.5919C124.859 66.1908 125.046 66.8884 125.046 67.6847C125.046 68.4878 124.886 69.2296 124.566 69.9102C124.246 70.5907 123.791 71.2645 123.198 71.9315C122.606 72.5916 121.902 73.3096 121.085 74.0855L118.502 76.607V76.7193H125.567V78.8223ZM139.91 63.8973L134.346 78.8223H132.1L137.664 63.8973H139.91ZM153.508 78.8223H151.099V69.216C151.099 68.8961 151.102 68.5762 151.109 68.2564C151.116 67.9365 151.122 67.6234 151.129 67.3172C151.143 67.0109 151.16 66.7183 151.18 66.4392C151.037 66.5958 150.86 66.7659 150.649 66.9497C150.445 67.1334 150.227 67.324 149.996 67.5213L148.281 68.8893L147.076 67.3682L151.507 63.8973H153.508V78.8223ZM165.472 78.8223H163.063V69.216C163.063 68.8961 163.066 68.5762 163.073 68.2564C163.08 67.9365 163.087 67.6234 163.094 67.3172C163.107 67.0109 163.124 66.7183 163.145 66.4392C163.002 66.5958 162.825 66.7659 162.614 66.9497C162.41 67.1334 162.192 67.324 161.96 67.5213L160.245 68.8893L159.041 67.3682L163.471 63.8973H165.472V78.8223ZM170.178 74.2284V72.1969H175.446V74.2284H170.178ZM182.194 69.4916C183.154 69.4916 183.997 69.6652 184.726 70.0122C185.461 70.3525 186.032 70.8562 186.441 71.5231C186.849 72.1833 187.053 72.9932 187.053 73.9528C187.053 75.0008 186.832 75.906 186.39 76.6683C185.947 77.4237 185.297 78.0056 184.44 78.4139C183.582 78.8223 182.538 79.0264 181.306 79.0264C180.523 79.0264 179.792 78.9584 179.111 78.8223C178.437 78.6862 177.855 78.482 177.365 78.2097V76.0455C177.876 76.3314 178.488 76.5662 179.203 76.7499C179.917 76.9269 180.601 77.0153 181.255 77.0153C181.949 77.0153 182.544 76.9133 183.041 76.7091C183.538 76.5049 183.919 76.1918 184.185 75.7699C184.457 75.3479 184.593 74.8137 184.593 74.1671C184.593 73.3096 184.317 72.6495 183.766 72.1867C183.222 71.7171 182.367 71.4823 181.204 71.4823C180.795 71.4823 180.36 71.5197 179.897 71.5946C179.441 71.6626 179.06 71.7375 178.754 71.8192L177.702 71.1964L178.264 63.8973H186.022V66.0105H180.377L180.05 69.7264C180.295 69.672 180.588 69.6209 180.928 69.5733C181.268 69.5188 181.69 69.4916 182.194 69.4916ZM196.139 78.8223H193.73V69.216C193.73 68.8961 193.733 68.5762 193.74 68.2564C193.747 67.9365 193.753 67.6234 193.76 67.3172C193.774 67.0109 193.791 66.7183 193.811 66.4392C193.668 66.5958 193.491 66.7659 193.28 66.9497C193.076 67.1334 192.859 67.324 192.627 67.5213L190.912 68.8893L189.707 67.3682L194.138 63.8973H196.139V78.8223ZM211.697 75.5453H209.675V78.8223H207.307V75.5453H200.518V73.7282L207.338 63.8565H209.675V73.5546H211.697V75.5453ZM207.307 73.5546V69.8489C207.307 69.5426 207.31 69.233 207.317 68.9199C207.331 68.6001 207.345 68.2938 207.358 68.0011C207.372 67.7085 207.385 67.4397 207.399 67.1947C207.413 66.9429 207.423 66.7353 207.43 66.5719H207.348C207.219 66.8442 207.076 67.1232 206.919 67.409C206.763 67.6881 206.596 67.9603 206.419 68.2257L202.744 73.5546H207.307ZM223.661 75.5453H221.64V78.8223H219.272V75.5453H212.483V73.7282L219.302 63.8565H221.64V73.5546H223.661V75.5453ZM219.272 73.5546V69.8489C219.272 69.5426 219.275 69.233 219.282 68.9199C219.295 68.6001 219.309 68.2938 219.323 68.0011C219.336 67.7085 219.35 67.4397 219.363 67.1947C219.377 66.9429 219.387 66.7353 219.394 66.5719H219.312C219.183 66.8442 219.04 67.1232 218.884 67.409C218.727 67.6881 218.56 67.9603 218.383 68.2257L214.708 73.5546H219.272ZM226.683 78.8223L232.543 66.0003H224.794V63.8973H235.126V65.5409L229.266 78.8223H226.683ZM241.975 63.6931C242.84 63.6931 243.619 63.8292 244.313 64.1015C245.007 64.3669 245.559 64.765 245.967 65.2959C246.375 65.8267 246.58 66.4835 246.58 67.2661C246.58 67.8718 246.454 68.3993 246.202 68.8485C245.957 69.2976 245.623 69.6924 245.201 70.0327C244.779 70.3661 244.306 70.6622 243.782 70.9208C244.368 71.2066 244.905 71.5367 245.395 71.911C245.892 72.2786 246.29 72.7107 246.59 73.2075C246.896 73.7044 247.049 74.2862 247.049 74.9532C247.049 75.7903 246.835 76.5151 246.406 77.1276C245.984 77.7333 245.395 78.2029 244.64 78.5364C243.885 78.8631 243.003 79.0264 241.996 79.0264C240.914 79.0264 239.992 78.8665 239.229 78.5466C238.467 78.2268 237.889 77.7708 237.494 77.1787C237.099 76.5798 236.902 75.8652 236.902 75.0349C236.902 74.3475 237.038 73.752 237.31 73.2484C237.582 72.7447 237.947 72.3092 238.402 71.9417C238.865 71.5742 239.372 71.2645 239.924 71.0127C239.454 70.7337 239.025 70.4206 238.637 70.0735C238.249 69.7196 237.94 69.3147 237.708 68.8587C237.484 68.3959 237.371 67.8616 237.371 67.2559C237.371 66.4801 237.579 65.8301 237.994 65.3061C238.409 64.7752 238.964 64.3737 239.658 64.1015C240.359 63.8292 241.132 63.6931 241.975 63.6931ZM239.189 74.943C239.189 75.5963 239.42 76.134 239.883 76.556C240.346 76.9779 241.036 77.1889 241.955 77.1889C242.867 77.1889 243.561 76.9813 244.038 76.5662C244.514 76.151 244.752 75.6032 244.752 74.9226C244.752 74.487 244.63 74.1025 244.385 73.769C244.147 73.4355 243.823 73.1395 243.415 72.8809C243.013 72.6154 242.568 72.3704 242.078 72.1458L241.751 72.0131C241.22 72.2377 240.764 72.4929 240.383 72.7788C240.002 73.0578 239.706 73.3743 239.495 73.7282C239.291 74.0821 239.189 74.487 239.189 74.943ZM241.955 65.5409C241.295 65.5409 240.75 65.7042 240.322 66.0309C239.9 66.3508 239.689 66.8135 239.689 67.4193C239.689 67.848 239.791 68.2155 239.995 68.5218C240.206 68.828 240.488 69.0935 240.842 69.3181C241.196 69.5358 241.588 69.74 242.016 69.9306C242.431 69.7468 242.806 69.5461 243.139 69.3283C243.48 69.1037 243.748 68.8383 243.946 68.532C244.15 68.2189 244.252 67.8446 244.252 67.409C244.252 66.8101 244.038 66.3508 243.609 66.0309C243.187 65.7042 242.636 65.5409 241.955 65.5409ZM259.555 75.5453H257.533V78.8223H255.165V75.5453H248.376V73.7282L255.196 63.8565H257.533V73.5546H259.555V75.5453ZM255.165 73.5546V69.8489C255.165 69.5426 255.168 69.233 255.175 68.9199C255.189 68.6001 255.202 68.2938 255.216 68.0011C255.23 67.7085 255.243 67.4397 255.257 67.1947C255.27 66.9429 255.281 66.7353 255.288 66.5719H255.206C255.077 66.8442 254.934 67.1232 254.777 67.409C254.621 67.6881 254.454 67.9603 254.277 68.2257L250.602 73.5546H255.165ZM270.978 78.8223H260.872V77.0153L264.741 73.0952C265.489 72.333 266.105 71.6762 266.588 71.125C267.072 70.5669 267.429 70.0395 267.66 69.5426C267.899 69.0458 268.018 68.5048 268.018 67.9195C268.018 67.1981 267.81 66.6536 267.395 66.2861C266.98 65.9118 266.432 65.7246 265.751 65.7246C265.105 65.7246 264.506 65.8539 263.955 66.1126C263.41 66.3644 262.845 66.7251 262.26 67.1947L260.943 65.6123C261.358 65.2584 261.801 64.9352 262.27 64.6425C262.747 64.3499 263.277 64.1185 263.863 63.9483C264.448 63.7714 265.115 63.6829 265.864 63.6829C266.81 63.6829 267.626 63.8531 268.314 64.1933C269.001 64.5268 269.529 64.993 269.896 65.5919C270.27 66.1908 270.458 66.8884 270.458 67.6847C270.458 68.4878 270.298 69.2296 269.978 69.9102C269.658 70.5907 269.202 71.2645 268.61 71.9315C268.018 72.5916 267.313 73.3096 266.497 74.0855L263.914 76.607V76.7193H270.978V78.8223Z" fill="white"/>
<path d="M115.971 99.8223H114.889V90.8523H112.949V89.8723H117.917V90.8523H115.971V99.8223ZM121.027 92.2271C121.536 92.2271 121.953 92.3745 122.28 92.6694C122.611 92.9644 122.856 93.3614 123.015 93.8604C123.178 94.3595 123.26 94.9153 123.26 95.5278V96.2697H119.7C119.709 97.1998 119.852 97.8985 120.129 98.3658C120.41 98.8332 120.832 99.0668 121.395 99.0668C121.663 99.0668 121.926 99.026 122.184 98.9443C122.443 98.8627 122.711 98.7311 122.987 98.5496V99.4888C122.729 99.6476 122.459 99.7656 122.178 99.8427C121.896 99.9198 121.597 99.9584 121.279 99.9584C120.658 99.9584 120.154 99.7928 119.768 99.4616C119.383 99.1258 119.101 98.6698 118.924 98.0936C118.752 97.5129 118.666 96.8572 118.666 96.1268C118.666 95.2919 118.754 94.5841 118.931 94.0034C119.108 93.4226 119.371 92.9825 119.721 92.6831C120.075 92.3791 120.51 92.2271 121.027 92.2271ZM121.027 93.0846C120.633 93.0846 120.324 93.2774 120.102 93.6631C119.879 94.0442 119.75 94.634 119.714 95.4326H122.28C122.28 95.0106 122.234 94.6227 122.144 94.2688C122.057 93.9104 121.921 93.6245 121.735 93.4113C121.554 93.1935 121.318 93.0846 121.027 93.0846ZM125.791 99.8223H124.743V89.2325H125.791V99.8223ZM129.657 92.2271C130.165 92.2271 130.583 92.3745 130.909 92.6694C131.241 92.9644 131.486 93.3614 131.644 93.8604C131.808 94.3595 131.889 94.9153 131.889 95.5278V96.2697H128.33C128.339 97.1998 128.482 97.8985 128.759 98.3658C129.04 98.8332 129.462 99.0668 130.025 99.0668C130.292 99.0668 130.555 99.026 130.814 98.9443C131.073 98.8627 131.34 98.7311 131.617 98.5496V99.4888C131.358 99.6476 131.089 99.7656 130.807 99.8427C130.526 99.9198 130.226 99.9584 129.909 99.9584C129.287 99.9584 128.784 99.7928 128.398 99.4616C128.012 99.1258 127.731 98.6698 127.554 98.0936C127.382 97.5129 127.295 96.8572 127.295 96.1268C127.295 95.2919 127.384 94.5841 127.561 94.0034C127.738 93.4226 128.001 92.9825 128.35 92.6831C128.704 92.3791 129.14 92.2271 129.657 92.2271ZM129.657 93.0846C129.262 93.0846 128.954 93.2774 128.731 93.6631C128.509 94.0442 128.38 94.634 128.344 95.4326H130.909C130.909 95.0106 130.864 94.6227 130.773 94.2688C130.687 93.9104 130.551 93.6245 130.365 93.4113C130.183 93.1935 129.947 93.0846 129.657 93.0846ZM131.461 89.1509V89.2734C131.37 89.4231 131.25 89.5932 131.1 89.7838C130.95 89.9698 130.787 90.1627 130.61 90.3623C130.433 90.5574 130.256 90.7434 130.079 90.9204C129.902 91.0973 129.743 91.2493 129.603 91.3763H128.936V91.2198C129.117 90.9703 129.285 90.7275 129.439 90.4916C129.594 90.2557 129.734 90.0265 129.861 89.8042C129.988 89.5774 130.104 89.3596 130.208 89.1509H131.461ZM135.721 93.2343H134.544V99.8223H133.502V93.2343H132.584V92.6694L133.502 92.3155V91.8119C133.502 91.2448 133.55 90.7638 133.645 90.3691C133.745 89.9744 133.915 89.6749 134.156 89.4707C134.401 89.262 134.736 89.1577 135.163 89.1577C135.363 89.1577 135.546 89.1758 135.714 89.2121C135.887 89.2484 136.064 89.3029 136.245 89.3755L135.973 90.2194C135.846 90.174 135.726 90.14 135.612 90.1173C135.503 90.0901 135.394 90.0765 135.285 90.0765C135.004 90.0765 134.811 90.2012 134.707 90.4508C134.607 90.6958 134.553 91.1404 134.544 91.7847V92.3496H135.721V93.2343ZM141.479 96.0791C141.479 96.6689 141.429 97.2021 141.329 97.6785C141.229 98.1549 141.077 98.5632 140.873 98.9035C140.669 99.2438 140.41 99.5047 140.097 99.6862C139.784 99.8676 139.414 99.9584 138.988 99.9584C138.579 99.9584 138.221 99.8676 137.912 99.6862C137.604 99.5047 137.348 99.246 137.143 98.9103C136.939 98.57 136.785 98.1617 136.681 97.6853C136.576 97.2043 136.524 96.6689 136.524 96.0791C136.524 95.2533 136.613 94.5546 136.789 93.9829C136.966 93.4067 137.239 92.9689 137.606 92.6694C137.974 92.3654 138.441 92.2135 139.008 92.2135C139.539 92.2135 139.988 92.3609 140.356 92.6558C140.723 92.9462 141.002 93.3795 141.193 93.9557C141.383 94.5274 141.479 95.2352 141.479 96.0791ZM137.593 96.0791C137.593 96.7279 137.642 97.2724 137.742 97.7125C137.842 98.1526 137.996 98.4838 138.205 98.7061C138.418 98.9284 138.688 99.0396 139.015 99.0396C139.337 99.0396 139.6 98.9307 139.804 98.7129C140.013 98.4951 140.167 98.1685 140.267 97.7329C140.367 97.2928 140.417 96.7415 140.417 96.0791C140.417 95.4303 140.367 94.8881 140.267 94.4525C140.167 94.0124 140.013 93.6835 139.804 93.4657C139.6 93.2434 139.335 93.1322 139.008 93.1322C138.509 93.1322 138.148 93.3795 137.926 93.8741C137.704 94.3641 137.593 95.0991 137.593 96.0791ZM145.671 92.2135C146.261 92.2135 146.708 92.4199 147.012 92.8328C147.316 93.2457 147.468 93.8786 147.468 94.7316V99.8223H146.42V94.9426C146.42 94.3391 146.34 93.8877 146.181 93.5882C146.027 93.2888 145.782 93.139 145.446 93.139C144.956 93.139 144.598 93.3568 144.371 93.7924C144.144 94.228 144.031 94.9267 144.031 95.8886V99.8223H142.983V92.3496H143.82L143.935 93.4317H144.004C144.108 93.1821 144.242 92.9666 144.405 92.7851C144.568 92.6037 144.757 92.463 144.97 92.3632C145.183 92.2634 145.417 92.2135 145.671 92.2135ZM153.906 96.0791C153.906 96.6689 153.856 97.2021 153.756 97.6785C153.656 98.1549 153.504 98.5632 153.3 98.9035C153.096 99.2438 152.837 99.5047 152.524 99.6862C152.211 99.8676 151.841 99.9584 151.415 99.9584C151.007 99.9584 150.648 99.8676 150.34 99.6862C150.031 99.5047 149.775 99.246 149.571 98.9103C149.366 98.57 149.212 98.1617 149.108 97.6853C149.003 97.2043 148.951 96.6689 148.951 96.0791C148.951 95.2533 149.04 94.5546 149.217 93.9829C149.394 93.4067 149.666 92.9689 150.033 92.6694C150.401 92.3654 150.868 92.2135 151.435 92.2135C151.966 92.2135 152.415 92.3609 152.783 92.6558C153.15 92.9462 153.429 93.3795 153.62 93.9557C153.811 94.5274 153.906 95.2352 153.906 96.0791ZM150.02 96.0791C150.02 96.7279 150.07 97.2724 150.17 97.7125C150.269 98.1526 150.424 98.4838 150.632 98.7061C150.846 98.9284 151.116 99.0396 151.442 99.0396C151.764 99.0396 152.028 98.9307 152.232 98.7129C152.44 98.4951 152.595 98.1685 152.694 97.7329C152.794 97.2928 152.844 96.7415 152.844 96.0791C152.844 95.4303 152.794 94.8881 152.694 94.4525C152.595 94.0124 152.44 93.6835 152.232 93.4657C152.028 93.2434 151.762 93.1322 151.435 93.1322C150.936 93.1322 150.576 93.3795 150.353 93.8741C150.131 94.3641 150.02 95.0991 150.02 96.0791ZM158.731 97.8486C158.731 98.2978 158.649 98.6812 158.486 98.9988C158.323 99.3118 158.085 99.55 157.772 99.7134C157.463 99.8767 157.086 99.9584 156.642 99.9584C156.297 99.9584 155.982 99.9175 155.696 99.8359C155.41 99.7542 155.167 99.6567 154.968 99.5432V98.4543C155.167 98.6177 155.414 98.7538 155.709 98.8627C156.004 98.967 156.304 99.0192 156.608 99.0192C156.957 99.0192 157.225 98.9194 157.411 98.7197C157.601 98.5201 157.697 98.2411 157.697 97.8826C157.697 97.6694 157.658 97.4856 157.581 97.3314C157.504 97.1726 157.379 97.0228 157.207 96.8822C157.039 96.737 156.816 96.585 156.54 96.4262C156.231 96.2356 155.957 96.0383 155.716 95.8341C155.48 95.6299 155.297 95.3963 155.165 95.1331C155.033 94.8654 154.968 94.541 154.968 94.1599C154.968 93.5791 155.156 93.1095 155.532 92.7511C155.914 92.3927 156.415 92.2135 157.037 92.2135C157.35 92.2135 157.645 92.2543 157.921 92.336C158.203 92.4131 158.468 92.5311 158.718 92.6899L158.323 93.5338C158.132 93.4022 157.928 93.2978 157.71 93.2207C157.497 93.1436 157.277 93.105 157.05 93.105C156.719 93.105 156.456 93.198 156.261 93.384C156.07 93.5701 155.975 93.8196 155.975 94.1327C155.975 94.3414 156.013 94.5206 156.091 94.6703C156.168 94.8201 156.295 94.9652 156.472 95.1059C156.649 95.2465 156.882 95.4053 157.173 95.5823C157.481 95.7774 157.751 95.977 157.983 96.1812C158.218 96.3808 158.402 96.6122 158.534 96.8754C158.665 97.1385 158.731 97.4629 158.731 97.8486Z" fill="#4D4B4B"/>
</svg>
