<svg width="57" height="57" viewBox="0 0 57 57" fill="none" xmlns="http://www.w3.org/2000/svg">
<mask id="path-1-inside-1_28_780" fill="white">
<path d="M28.5071 27.7733C29.5614 27.7733 30.4611 27.3984 31.206 26.6487C31.951 25.899 32.3235 24.997 32.3235 23.9426C32.3235 22.8883 31.9486 21.9887 31.1989 21.2437C30.4476 20.4987 29.5456 20.1262 28.4929 20.1262C27.4401 20.1262 26.5405 20.5019 25.7939 21.2532C25.049 22.0029 24.6765 22.9049 24.6765 23.9592C24.6765 25.0135 25.0513 25.9132 25.801 26.6582C26.5523 27.4031 27.4543 27.7756 28.5071 27.7756M28.5 49.765C22.9364 44.8453 18.7459 40.2571 15.9286 36.0003C13.1096 31.7436 11.7002 27.8695 11.7002 24.3783C11.7002 19.3702 13.3306 15.2397 16.5915 11.9868C19.8539 8.73224 23.8234 7.10498 28.5 7.10498C33.1766 7.10498 37.1461 8.73224 40.4085 11.9868C43.6693 15.2397 45.2998 19.3702 45.2998 24.3783C45.2998 27.8695 43.8911 31.7436 41.0738 36.0003C38.2549 40.2571 34.0636 44.8453 28.5 49.765Z"/>
</mask>
<path d="M31.1989 21.2437L31.9038 20.5343L31.903 20.5336L31.1989 21.2437ZM25.7939 21.2532L25.0846 20.5483L25.0846 20.5483L25.7939 21.2532ZM25.801 26.6582L25.0962 27.3675L25.0969 27.3682L25.801 26.6582ZM28.5 49.765L27.8376 50.5141L28.5 51.0998L29.1624 50.5141L28.5 49.765ZM15.9286 36.0003L16.7625 35.4484L16.7623 35.4482L15.9286 36.0003ZM16.5915 11.9868L17.2977 12.6947L17.2977 12.6947L16.5915 11.9868ZM40.4085 11.9868L39.7023 12.6947V12.6947L40.4085 11.9868ZM41.0738 36.0003L41.9075 36.5524L41.9077 36.5522L41.0738 36.0003ZM28.5071 28.7733C29.8285 28.7733 30.9832 28.2917 31.9154 27.3536L30.4967 25.9438C29.9389 26.5052 29.2944 26.7733 28.5071 26.7733V28.7733ZM31.9154 27.3536C32.846 26.417 33.3235 25.2618 33.3235 23.9426H31.3235C31.3235 24.7321 31.056 25.381 30.4967 25.9438L31.9154 27.3536ZM33.3235 23.9426C33.3235 22.6213 32.8419 21.4665 31.9038 20.5343L30.4941 21.953C31.0554 22.5108 31.3235 23.1554 31.3235 23.9426H33.3235ZM31.903 20.5336C30.9655 19.604 29.8109 19.1262 28.4929 19.1262V21.1262C29.2804 21.1262 29.9298 21.3935 30.4948 21.9538L31.903 20.5336ZM28.4929 19.1262C27.172 19.1262 26.0176 19.6094 25.0846 20.5483L26.5033 21.958C27.0634 21.3944 27.7083 21.1262 28.4929 21.1262V19.1262ZM25.0846 20.5483C24.154 21.4848 23.6765 22.64 23.6765 23.9592H25.6765C25.6765 23.1697 25.9439 22.5209 26.5033 21.958L25.0846 20.5483ZM23.6765 23.9592C23.6765 25.2806 24.1581 26.4353 25.0962 27.3675L26.5059 25.9488C25.9446 25.391 25.6765 24.7465 25.6765 23.9592H23.6765ZM25.0969 27.3682C26.0344 28.2979 27.1891 28.7756 28.5071 28.7756V26.7756C27.7196 26.7756 27.0702 26.5084 26.5051 25.9481L25.0969 27.3682ZM29.1624 49.0158C23.6374 44.1304 19.515 39.6074 16.7625 35.4484L15.0947 36.5522C17.9767 40.9068 22.2353 45.5602 27.8376 50.5141L29.1624 49.0158ZM16.7623 35.4482C14.0044 31.2835 12.7002 27.6019 12.7002 24.3783H10.7002C10.7002 28.1371 12.2149 32.2036 15.0948 36.5524L16.7623 35.4482ZM12.7002 24.3783C12.7002 19.6103 14.2423 15.7427 17.2977 12.6947L15.8852 11.2788C12.4189 14.7367 10.7002 19.1301 10.7002 24.3783H12.7002ZM17.2977 12.6947C20.3695 9.63031 24.0838 8.10498 28.5 8.10498V6.10498C23.563 6.10498 19.3382 7.83417 15.8852 11.2788L17.2977 12.6947ZM28.5 8.10498C32.9162 8.10498 36.6304 9.63031 39.7023 12.6947L41.1148 11.2788C37.6618 7.83417 33.437 6.10498 28.5 6.10498V8.10498ZM39.7023 12.6947C42.7577 15.7427 44.2998 19.6103 44.2998 24.3783H46.2998C46.2998 19.1301 44.581 14.7367 41.1148 11.2788L39.7023 12.6947ZM44.2998 24.3783C44.2998 27.6021 42.9963 31.2837 40.2399 35.4484L41.9077 36.5522C44.7859 32.2034 46.2998 28.137 46.2998 24.3783H44.2998ZM40.24 35.4482C37.4858 39.6073 33.3625 44.1303 27.8376 49.0158L29.1624 50.5141C34.7647 45.5603 39.0239 40.9069 41.9075 36.5524L40.24 35.4482Z" fill="white" mask="url(#path-1-inside-1_28_780)"/>
</svg>
